<?xml version="1.0" encoding="UTF-8" standalone="no"?>
<!-- Created with Inkscape (http://www.inkscape.org/) -->

<svg
   xmlns:dc="http://purl.org/dc/elements/1.1/"
   xmlns:cc="http://creativecommons.org/ns#"
   xmlns:rdf="http://www.w3.org/1999/02/22-rdf-syntax-ns#"
   xmlns:svg="http://www.w3.org/2000/svg"
   xmlns="http://www.w3.org/2000/svg"
   xmlns:sodipodi="http://sodipodi.sourceforge.net/DTD/sodipodi-0.dtd"
   xmlns:inkscape="http://www.inkscape.org/namespaces/inkscape"
   width="1150mm"
   height="700mm"
   viewBox="0 0 1150 700"
   version="1.1"
   id="svg8"
   inkscape:version="0.92.3 (2405546, 2018-03-11)"
   sodipodi:docname="waves.svg">
  <defs
     id="defs2">
    <inkscape:path-effect
       effect="spiro"
       id="path-effect16"
       is_visible="true" />
    <inkscape:path-effect
       effect="spiro"
       id="path-effect16-3"
       is_visible="true" />
    <inkscape:path-effect
       effect="spiro"
       id="path-effect16-7"
       is_visible="true" />
    <inkscape:path-effect
       effect="spiro"
       id="path-effect16-7-3"
       is_visible="true" />
    <inkscape:path-effect
       effect="spiro"
       id="path-effect16-7-2"
       is_visible="true" />
    <inkscape:path-effect
       effect="spiro"
       id="path-effect16-7-2-0"
       is_visible="true" />
    <inkscape:path-effect
       effect="spiro"
       id="path-effect16-7-2-0-3"
       is_visible="true" />
    <inkscape:path-effect
       effect="spiro"
       id="path-effect16-7-2-0-0"
       is_visible="true" />
    <inkscape:path-effect
       effect="spiro"
       id="path-effect16-7-2-0-6"
       is_visible="true" />
    <inkscape:path-effect
       effect="spiro"
       id="path-effect16-7-2-0-8"
       is_visible="true" />
    <inkscape:path-effect
       effect="spiro"
       id="path-effect16-7-2-0-9"
       is_visible="true" />
    <inkscape:path-effect
       effect="spiro"
       id="path-effect16-7-2-0-02"
       is_visible="true" />
    <inkscape:path-effect
       effect="spiro"
       id="path-effect16-7-2-0-02-7"
       is_visible="true" />
    <inkscape:path-effect
       effect="spiro"
       id="path-effect16-7-2-0-9-5"
       is_visible="true" />
    <inkscape:path-effect
       effect="spiro"
       id="path-effect16-7-2-0-8-9"
       is_visible="true" />
    <inkscape:path-effect
       effect="spiro"
       id="path-effect16-7-2-0-6-2"
       is_visible="true" />
    <inkscape:path-effect
       effect="spiro"
       id="path-effect16-7-2-0-02-4"
       is_visible="true" />
    <inkscape:path-effect
       effect="spiro"
       id="path-effect16-7-2-0-9-50"
       is_visible="true" />
    <inkscape:path-effect
       effect="spiro"
       id="path-effect16-7-2-0-8-3"
       is_visible="true" />
    <inkscape:path-effect
       effect="spiro"
       id="path-effect16-7-2-0-6-6"
       is_visible="true" />
    <inkscape:path-effect
       effect="spiro"
       id="path-effect16-7-2-0-02-2"
       is_visible="true" />
    <inkscape:path-effect
       effect="spiro"
       id="path-effect16-7-2-0-9-0"
       is_visible="true" />
    <inkscape:path-effect
       effect="spiro"
       id="path-effect16-7-2-0-8-6"
       is_visible="true" />
    <inkscape:path-effect
       effect="spiro"
       id="path-effect16-7-2-0-6-1"
       is_visible="true" />
    <inkscape:path-effect
       effect="spiro"
       id="path-effect16-7-5"
       is_visible="true" />
  </defs>
  <sodipodi:namedview
     id="base"
     pagecolor="#ffffff"
     bordercolor="#666666"
     borderopacity="1.0"
     inkscape:pageopacity="0.0"
     inkscape:pageshadow="2"
     inkscape:zoom="0.24748737"
     inkscape:cx="1599.0958"
     inkscape:cy="1425.1184"
     inkscape:document-units="mm"
     inkscape:current-layer="layer1"
     showgrid="false"
     inkscape:window-width="1920"
     inkscape:window-height="1012"
     inkscape:window-x="0"
     inkscape:window-y="0"
     inkscape:window-maximized="1" />
  <metadata
     id="metadata5">
    <rdf:RDF>
      <cc:Work
         rdf:about="">
        <dc:format>image/svg+xml</dc:format>
        <dc:type
           rdf:resource="http://purl.org/dc/dcmitype/StillImage" />
        <dc:title></dc:title>
      </cc:Work>
    </rdf:RDF>
  </metadata>
  <g
     inkscape:label="Layer 1"
     inkscape:groupmode="layer"
     id="layer1"
     transform="translate(0,403)">
    <path
       style="fill:none;stroke:#000000;stroke-width:0.26458332px;stroke-linecap:butt;stroke-linejoin:miter;stroke-opacity:1"
       d="m -115,296.99997 c 14.39881,-15.23092 32.811501,-26.63307 52.863045,-32.73571 20.051543,-6.10264 41.694419,-6.89132 62.136955,-2.26429 19.710287,4.46129 37.928439,13.73652 56.529115,21.63673 18.600675,7.90021 38.394749,14.57859 58.567045,13.36327 20.15333,-1.21417 38.90525,-10.16859 57.24167,-18.61882 18.33642,-8.45022 37.57111,-16.70822 57.75833,-16.38118 20.18549,0.32701 39.12062,9.1938 57.38516,17.79422 18.26455,8.60042 37.3307,17.2842 57.51868,17.20578 20.20838,-0.0785 39.21811,-8.9256 57.48401,-17.57093 18.26589,-8.64534 37.30747,-17.44831 57.51599,-17.42907 20.20967,0.0192 39.2342,8.85897 57.49692,17.51369 18.26272,8.65471 37.2934,17.48593 57.50308,17.48631 20.20966,3.8e-4 39.24068,-8.8301 57.50346,-17.48463 18.26279,-8.65453 37.2869,-17.49457 57.49654,-17.51537 20.20841,-0.0208 39.25094,8.77952 57.51716,17.42391 18.26621,8.64439 37.2746,17.49204 57.48284,17.57609 20.20352,0.084 39.28619,-8.60324 57.56645,-17.20679 18.28026,-8.60356 37.23239,-17.47323 57.43355,-17.79321 20.18724,-0.31976 39.41958,7.94145 57.75593,16.3916 18.33635,8.45016 37.09037,17.4013 57.24407,18.6084 20.1572,1.20732 39.9341,-5.47027 58.5189,-13.36809 18.5848,-7.89781 36.7871,-17.16903 56.4811,-21.63191 20.4423,-4.63245 42.0869,-3.84648 62.1393,2.25644 20.0525,6.10292 38.4651,17.50829 52.8607,32.74356"
       id="path14-5"
       inkscape:connector-curvature="0"
       inkscape:path-effect="#path-effect16-7"
       inkscape:original-d="m -115,296.99997 c 14.25451,5.70162 94.822299,-42.32459 115,-35 20.177701,7.3246 95.061467,35 115.09616,35 40.06938,0 87.56059,-23.2404 115,-35 27.43941,-11.75959 87.8208,23.59624 114.90384,35 27.08306,11.40376 85.42244,-23.95312 115,-35 29.57755,-11.04688 82.57156,21.81444 115,35 32.42842,13.18556 86.84786,-21.81497 115,-35 28.15212,-13.18503 88.98606,23.59624 115,35 26.014,11.40376 80.07702,-24.30949 115,-35 34.9229,-10.69052 85.4224,21.45808 115,35 14.7888,6.77096 94.758,-26.38357 115,-35 20.242,-8.61643 95.7567,42.30524 115,35"
       sodipodi:nodetypes="csssssssssssc" />
    <path
       style="fill:none;stroke:#000000;stroke-width:0.26458332px;stroke-linecap:butt;stroke-linejoin:miter;stroke-opacity:1"
       d="m -114.90387,261.72413 c 14.39882,-15.23091 32.811507,-26.63306 52.863051,-32.7357 20.051544,-6.10264 41.694419,-6.89132 62.13695543,-2.26429 19.71028957,4.46129 37.92844357,13.73651 56.52912157,21.63672 18.600679,7.90022 38.394755,14.57859 58.567052,13.36327 20.15332,-1.21417 38.90524,-10.16859 57.24166,-18.61881 18.33643,-8.45023 37.57111,-16.70822 57.75833,-16.38118 20.18548,0.32701 39.12061,9.1938 57.38516,17.79422 18.26454,8.60041 37.33069,17.28419 57.51867,17.20577 20.20838,-0.0785 39.21812,-8.92559 57.48401,-17.57093 18.2659,-8.64533 37.30748,-17.4483 57.516,-17.42906 20.20967,0.0192 39.2342,8.85897 57.49692,17.51368 18.26273,8.65472 37.29341,17.48593 57.50309,17.48631 20.20965,3.8e-4 39.24068,-8.8301 57.50346,-17.48463 18.26279,-8.65452 37.2869,-17.49456 57.49654,-17.51536 20.2084,-0.0208 39.25094,8.77952 57.51715,17.42391 18.26622,8.64439 37.2746,17.49204 57.48284,17.57608 20.2035,0.084 39.28616,-8.60324 57.56641,-17.20679 18.28026,-8.60355 37.23237,-17.47321 57.43352,-17.7932 20.18724,-0.31977 39.41959,7.94144 57.75594,16.39159 18.33636,8.45016 37.09039,17.4013 57.24409,18.6084 20.1572,1.20731 39.9341,-5.47028 58.5189,-13.36809 18.5848,-7.89781 36.7871,-17.16903 56.4811,-21.6319 20.4423,-4.63244 42.0869,-3.84646 62.1393,2.25645 20.0524,6.10292 38.465,17.50828 52.8606,32.74354"
       id="path14-5-7"
       inkscape:connector-curvature="0"
       inkscape:path-effect="#path-effect16-7-2"
       inkscape:original-d="m -114.90387,261.72413 c 14.25451,5.70162 94.822309,-42.32458 115.00000643,-34.99999 20.17770957,7.3246 95.06146957,34.99999 115.09617357,34.99999 40.06938,0 87.56058,-23.24039 114.99999,-34.99999 27.43941,-11.75959 87.82079,23.59624 114.90383,34.99999 27.08307,11.40377 85.42245,-23.95311 115.00001,-34.99999 29.57756,-11.04689 82.57156,21.81444 115.00001,34.99999 32.42841,13.18557 86.84786,-21.81496 115,-34.99999 28.15212,-13.18504 88.98605,23.59624 114.99999,34.99999 26.01401,11.40377 80.07703,-24.30948 114.99993,-34.99999 34.923,-10.69052 85.42233,21.45808 115.00003,34.99999 14.7888,6.77096 94.758,-26.38356 115,-34.99999 20.242,-8.61643 95.7566,42.30524 114.9999,34.99999"
       sodipodi:nodetypes="csssssssssssc" />
    <path
       style="fill:none;stroke:#000000;stroke-width:0.26458332px;stroke-linecap:butt;stroke-linejoin:miter;stroke-opacity:1"
       d="m -114.90387,226.72413 c 14.39882,-15.23091 32.811509,-26.63306 52.863054,-32.7357 20.051545,-6.10264 41.694422,-6.89132 62.13695944,-2.26429 19.71028956,4.46129 37.92844356,13.73651 56.52912256,21.63673 18.600679,7.90021 38.394756,14.57858 58.567054,13.36326 20.15332,-1.21417 38.90524,-10.16859 57.24166,-18.61881 18.33642,-8.45023 37.5711,-16.70822 57.75832,-16.38118 20.18548,0.32701 39.12061,9.1938 57.38516,17.79422 18.26454,8.60041 37.33069,17.28419 57.51867,17.20577 20.20838,-0.0785 39.21812,-8.92559 57.48401,-17.57092 18.2659,-8.64534 37.30748,-17.44831 57.516,-17.42907 20.20967,0.0192 39.23421,8.85897 57.49693,17.51368 18.26273,8.65472 37.29342,17.48593 57.5031,17.48631 20.20965,3.8e-4 39.24067,-8.8301 57.50345,-17.48463 18.26278,-8.65452 37.28689,-17.49456 57.49653,-17.51536 20.20841,-0.0208 39.25094,8.77952 57.51716,17.42391 18.26622,8.64439 37.27461,17.49204 57.48285,17.57608 20.20351,0.084 39.28617,-8.60324 57.56642,-17.20679 18.28025,-8.60355 37.23237,-17.47322 57.43352,-17.7932 20.18724,-0.31976 39.41958,7.94144 57.75593,16.39159 18.33635,8.45016 37.09037,17.4013 57.24407,18.6084 20.1572,1.20732 39.9341,-5.47027 58.5189,-13.36809 18.5848,-7.89781 36.7871,-17.16903 56.4811,-21.6319 20.4423,-4.63244 42.0869,-3.84646 62.1393,2.25645 20.0524,6.10292 38.465,17.50828 52.8606,32.74354"
       id="path14-5-7-9"
       inkscape:connector-curvature="0"
       inkscape:path-effect="#path-effect16-7-2-0"
       inkscape:original-d="m -114.90387,226.72413 c 14.25451,5.70162 94.822313,-42.32458 115.00001344,-34.99999 20.17770956,7.3246 95.06146956,34.99999 115.09617656,34.99999 40.06937,0 87.56057,-23.24039 114.99998,-34.99999 27.43941,-11.75959 87.82079,23.59624 114.90383,34.99999 27.08307,11.40377 85.42245,-23.95311 115.00001,-34.99999 29.57758,-11.04689 82.57156,21.81444 115.00003,34.99999 32.42839,13.18556 86.84784,-21.81496 114.99998,-34.99999 28.15212,-13.18504 88.98607,23.59624 115.00001,34.99999 26.01399,11.40377 80.07704,-24.30948 114.99994,-34.99999 34.923,-10.69052 85.4223,21.45808 115,34.99999 14.7888,6.77096 94.758,-26.38356 115,-34.99999 20.242,-8.61643 95.7566,42.30523 114.9999,34.99999"
       sodipodi:nodetypes="csssssssssssc" />
    <path
       style="fill:none;stroke:#000000;stroke-width:0.26458332px;stroke-linecap:butt;stroke-linejoin:miter;stroke-opacity:1"
       d="m -114.90387,191.72413 c 14.39882,-15.23091 32.811511,-26.63306 52.863058,-32.7357 20.051546,-6.10264 41.694424,-6.89132 62.13696203,-2.26429 19.71028997,4.46129 37.92844497,13.73652 56.52912497,21.63673 18.600679,7.90021 38.394757,14.57858 58.567055,13.36326 20.15332,-1.21418 38.90523,-10.16859 57.24165,-18.61881 18.33642,-8.45023 37.57111,-16.70822 57.75832,-16.38118 20.18548,0.32701 39.12061,9.1938 57.38516,17.79422 18.26454,8.60041 37.33069,17.28419 57.51867,17.20577 20.20838,-0.0785 39.21812,-8.92559 57.48401,-17.57092 18.2659,-8.64534 37.30748,-17.44831 57.516,-17.42907 20.20967,0.0192 39.2342,8.85897 57.49693,17.51368 18.26272,8.65472 37.29341,17.48593 57.50309,17.48631 20.20965,3.8e-4 39.24067,-8.8301 57.50346,-17.48463 18.26278,-8.65452 37.28689,-17.49456 57.49653,-17.51536 20.20841,-0.0208 39.25094,8.77952 57.51716,17.42391 18.26622,8.64439 37.27461,17.49204 57.48285,17.57608 20.20351,0.084 39.28617,-8.60324 57.56642,-17.20679 18.28025,-8.60355 37.23237,-17.47322 57.43352,-17.7932 20.18724,-0.31976 39.41958,7.94144 57.75593,16.39159 18.33635,8.45016 37.09037,17.4013 57.24407,18.6084 20.1572,1.20732 39.9341,-5.47027 58.5189,-13.36809 18.5848,-7.89781 36.7871,-17.16903 56.4811,-21.6319 20.4423,-4.63244 42.0869,-3.84646 62.1393,2.25645 20.0524,6.10292 38.465,17.50828 52.8606,32.74354"
       id="path14-5-7-9-6"
       inkscape:connector-curvature="0"
       inkscape:path-effect="#path-effect16-7-2-0-3"
       inkscape:original-d="m -114.90387,191.72413 c 14.25451,5.70162 94.82232,-42.32458 115.00002003,-34.99999 20.17770997,7.3246 95.06146997,34.99999 115.09617997,34.99999 40.06936,0 87.56056,-23.24039 114.99997,-34.99999 27.43941,-11.75959 87.82079,23.59624 114.90383,34.99999 27.08307,11.40377 85.42245,-23.95311 115.00001,-34.99999 29.57757,-11.04689 82.57155,21.81444 115.00002,34.99999 32.42839,13.18556 86.84784,-21.81496 114.99999,-34.99999 28.15212,-13.18504 88.98607,23.59624 115.00001,34.99999 26.01399,11.40377 80.07704,-24.30948 114.99994,-34.99999 34.923,-10.69052 85.4223,21.45808 115,34.99999 14.7888,6.77096 94.758,-26.38356 115,-34.99999 20.242,-8.61643 95.7566,42.30523 114.9999,34.99999"
       sodipodi:nodetypes="csssssssssssc" />
    <path
       style="fill:none;stroke:#000000;stroke-width:0.26458332px;stroke-linecap:butt;stroke-linejoin:miter;stroke-opacity:1"
       d="m -114.90387,156.72413 c 14.39882,-15.23091 32.811511,-26.63306 52.863058,-32.7357 20.051546,-6.10264 41.694424,-6.89132 62.13696243,-2.26429 19.71028957,4.46129 37.92844457,13.73652 56.52912457,21.63673 18.600679,7.90021 38.394757,14.57858 58.567055,13.36326 20.15332,-1.21418 38.90523,-10.16859 57.24165,-18.61881 18.33642,-8.45023 37.57111,-16.70822 57.75832,-16.38118 20.18548,0.32701 39.12061,9.1938 57.38516,17.79422 18.26454,8.60041 37.33069,17.28419 57.51867,17.20577 20.20838,-0.0785 39.21812,-8.92559 57.48401,-17.57092 18.2659,-8.64534 37.30748,-17.44831 57.516,-17.42907 20.20967,0.0192 39.23421,8.85897 57.49693,17.51368 18.26273,8.65472 37.29342,17.48593 57.5031,17.48631 20.20965,3.8e-4 39.24067,-8.8301 57.50345,-17.48463 18.26278,-8.65452 37.28689,-17.49456 57.49653,-17.51536 20.20841,-0.0208 39.25094,8.77952 57.51716,17.42391 18.26622,8.64439 37.27461,17.49204 57.48285,17.57608 20.20351,0.084 39.28617,-8.60324 57.56642,-17.20679 18.28025,-8.60355 37.23237,-17.47322 57.43352,-17.7932 20.18724,-0.31976 39.41958,7.94144 57.75593,16.39159 18.33635,8.45016 37.09037,17.4013 57.24407,18.6084 20.1572,1.20732 39.9341,-5.47027 58.5189,-13.36809 18.5848,-7.89781 36.7871,-17.16903 56.4811,-21.6319 20.4423,-4.63244 42.0869,-3.84646 62.1393,2.25645 20.0524,6.10292 38.465,17.50828 52.8606,32.74354"
       id="path14-5-7-9-62"
       inkscape:connector-curvature="0"
       inkscape:path-effect="#path-effect16-7-2-0-0"
       inkscape:original-d="m -114.90387,156.72413 c 14.25451,5.70162 94.822318,-42.32458 115.00002043,-34.99999 20.17770957,7.3246 95.06147157,34.99999 115.09617957,34.99999 40.06936,0 87.56056,-23.24039 114.99997,-34.99999 27.43941,-11.75959 87.82079,23.59624 114.90383,34.99999 27.08307,11.40377 85.42245,-23.95311 115.00001,-34.99999 29.57758,-11.04689 82.57156,21.81444 115.00003,34.99999 32.42839,13.18556 86.84784,-21.81496 114.99998,-34.99999 28.15212,-13.18504 88.98607,23.59624 115.00001,34.99999 26.01399,11.40377 80.07704,-24.30948 114.99994,-34.99999 34.923,-10.69052 85.4223,21.45808 115,34.99999 14.7888,6.77096 94.758,-26.38356 115,-34.99999 20.242,-8.61643 95.7566,42.30523 114.9999,34.99999"
       sodipodi:nodetypes="csssssssssssc" />
    <path
       style="fill:none;stroke:#000000;stroke-width:0.26458332px;stroke-linecap:butt;stroke-linejoin:miter;stroke-opacity:1"
       d="M -114.90387,121.72413 C -100.50504,106.49321 -82.092332,95.091056 -62.040771,88.988414 -41.98921,82.885773 -20.346317,82.097106 0.09623353,86.724143 19.806514,91.185435 38.024659,100.46066 56.62533,108.36087 c 18.600672,7.90021 38.39474,14.57858 58.56703,13.36326 20.15332,-1.21417 38.90524,-10.16859 57.24165,-18.61881 18.33642,-8.450223 37.57111,-16.708215 57.75832,-16.381177 20.18548,0.32701 39.12061,9.193797 57.38516,17.794217 18.26454,8.60041 37.33069,17.28419 57.51867,17.20577 20.20838,-0.0785 39.21812,-8.92559 57.48401,-17.57092 18.2659,-8.645334 37.30748,-17.448306 57.516,-17.429067 20.20967,0.01924 39.23421,8.858965 57.49693,17.513677 18.26273,8.65472 37.29342,17.48593 57.5031,17.48631 20.20965,3.8e-4 39.24067,-8.8301 57.50345,-17.48462 18.26278,-8.65453 37.28689,-17.494569 57.49653,-17.515367 20.20841,-0.0208 39.25094,8.77952 57.51716,17.423907 18.26622,8.64439 37.27461,17.49204 57.48285,17.57608 20.20351,0.084 39.28617,-8.60324 57.56642,-17.20678 18.28025,-8.603551 37.23237,-17.473218 57.43352,-17.793207 20.18725,-0.319769 39.4196,7.941437 57.75596,16.391587 18.33637,8.45016 37.09041,17.4013 57.24411,18.6084 20.1572,1.20731 39.9341,-5.47028 58.5189,-13.36809 18.5848,-7.89781 36.7871,-17.169028 56.4811,-21.631897 20.4423,-4.632437 42.0869,-3.84646 62.1393,2.256455 20.0524,6.102915 38.465,17.508272 52.8606,32.743532"
       id="path14-5-7-9-1"
       inkscape:connector-curvature="0"
       inkscape:path-effect="#path-effect16-7-2-0-6"
       inkscape:original-d="m -114.90387,121.72413 c 14.2545,5.70162 94.822304,-42.324577 115.00010353,-34.999987 20.17770047,7.3246 95.06142047,34.999987 115.09612647,34.999987 40.06936,0 87.56056,-23.240387 114.99997,-34.999987 27.43941,-11.75959 87.82079,23.596237 114.90383,34.999987 27.08307,11.40377 85.42245,-23.953107 115.00001,-34.999987 29.57758,-11.04689 82.57156,21.814437 115.00003,34.999987 32.42839,13.18556 86.84784,-21.814957 114.99998,-34.999987 28.15212,-13.18504 88.98607,23.596237 115.00001,34.999987 26.01399,11.40377 80.07704,-24.309477 114.99994,-34.999987 34.923,-10.69052 85.42237,21.458077 115.00007,34.999987 14.7888,6.77096 94.758,-26.383557 115,-34.999987 20.242,-8.61643 95.7566,42.305227 114.9999,34.999987"
       sodipodi:nodetypes="csssssssssssc" />
    <path
       style="fill:none;stroke:#000000;stroke-width:0.26458332px;stroke-linecap:butt;stroke-linejoin:miter;stroke-opacity:1"
       d="M -114.90387,86.724132 C -100.50505,71.493218 -82.092359,60.091071 -62.040812,53.988429 -41.989266,47.885787 -20.346388,47.097115 0.09615044,51.724142 19.80644,56.185429 38.024595,65.460658 56.625275,73.360869 c 18.600679,7.900211 38.394757,14.578582 58.567055,13.363263 20.15332,-1.214175 38.90523,-10.168589 57.24165,-18.618813 18.33642,-8.450224 37.57111,-16.708216 57.75832,-16.381177 20.18548,0.327011 39.12061,9.193799 57.38516,17.794215 18.26454,8.600417 37.33069,17.284192 57.51867,17.205775 20.20838,-0.0785 39.21812,-8.925592 57.48401,-17.570924 18.2659,-8.645332 37.30748,-17.448305 57.516,-17.429066 20.20967,0.01924 39.23421,8.858966 57.49693,17.513682 18.26273,8.654716 37.29342,17.485928 57.5031,17.486308 20.20965,3.8e-4 39.24067,-8.830099 57.50345,-17.484626 18.26278,-8.654527 37.28689,-17.494566 57.49653,-17.515364 20.20841,-0.0208 39.25094,8.779521 57.51716,17.423909 18.26622,8.644388 37.27461,17.492037 57.48285,17.576081 20.20351,0.08402 39.28617,-8.603241 57.56642,-17.206789 18.28025,-8.603549 37.23237,-17.473216 57.43352,-17.793201 20.18724,-0.319764 39.41958,7.941441 57.75593,16.391594 18.33635,8.450153 37.09037,17.401292 57.24407,18.608396 20.1572,1.207315 39.9341,-5.470274 58.5189,-13.368088 18.5848,-7.897814 36.7871,-17.169032 56.4811,-21.631902 20.4423,-4.632439 42.0869,-3.846462 62.1393,2.256453 20.0524,6.102916 38.465,17.508277 52.8606,32.743537"
       id="path14-5-7-9-7"
       inkscape:connector-curvature="0"
       inkscape:path-effect="#path-effect16-7-2-0-8"
       inkscape:original-d="m -114.90387,86.724132 c 14.25451,5.701617 94.822318,-42.32458 115.00002044,-34.99999 20.17770956,7.3246 95.06147056,34.99999 115.09617956,34.99999 40.06936,0 87.56056,-23.24039 114.99997,-34.99999 27.43941,-11.75959 87.82079,23.59624 114.90383,34.99999 27.08307,11.403767 85.42245,-23.95311 115.00001,-34.99999 29.57758,-11.04689 82.57156,21.81444 115.00003,34.99999 32.42839,13.185557 86.84784,-21.81496 114.99998,-34.99999 28.15212,-13.18504 88.98607,23.59624 115.00001,34.99999 26.01399,11.403767 80.07704,-24.30948 114.99994,-34.99999 34.923,-10.69052 85.4223,21.45808 115,34.99999 14.7888,6.770957 94.758,-26.38356 115,-34.99999 20.242,-8.61643 95.7566,42.305227 114.9999,34.99999"
       sodipodi:nodetypes="csssssssssssc" />
    <path
       style="fill:none;stroke:#000000;stroke-width:0.26458332px;stroke-linecap:butt;stroke-linejoin:miter;stroke-opacity:1"
       d="M -114.90387,51.724132 C -100.50505,36.493219 -82.092359,25.091072 -62.040812,18.98843 -41.989266,12.885789 -20.346389,12.097117 0.09614944,16.724143 19.80644,21.18543 38.024595,30.460658 56.625274,38.360869 c 18.60068,7.900211 38.394758,14.578582 58.567056,13.363263 20.15332,-1.214175 38.90523,-10.168589 57.24165,-18.618812 18.33642,-8.450224 37.57111,-16.708216 57.75832,-16.381177 20.18548,0.327011 39.12061,9.193798 57.38516,17.794215 18.26454,8.600416 37.33069,17.284191 57.51867,17.205774 20.20838,-0.0785 39.21812,-8.925591 57.48401,-17.570924 18.2659,-8.645332 37.30748,-17.448304 57.516,-17.429065 20.20967,0.01924 39.23421,8.858966 57.49693,17.513682 18.26273,8.654715 37.29342,17.485927 57.5031,17.486307 20.20965,3.8e-4 39.24067,-8.830098 57.50345,-17.484625 18.26278,-8.654527 37.28689,-17.494566 57.49653,-17.515364 20.20841,-0.0208 39.25094,8.779521 57.51716,17.423909 18.26622,8.644388 37.27461,17.492036 57.48285,17.57608 20.20351,0.08402 39.28617,-8.60324 57.56642,-17.206789 18.28025,-8.603549 37.23237,-17.473215 57.43352,-17.7932 20.18724,-0.319764 39.41958,7.94144 57.75593,16.391594 18.33635,8.450153 37.09037,17.401291 57.24407,18.608395 20.1572,1.207315 39.9341,-5.470274 58.5189,-13.368088 18.5848,-7.897814 36.7871,-17.169031 56.4811,-21.631901 20.4423,-4.632439 42.0869,-3.846462 62.1393,2.256453 20.0524,6.102915 38.465,17.508277 52.8606,32.743536"
       id="path14-5-7-9-2"
       inkscape:connector-curvature="0"
       inkscape:path-effect="#path-effect16-7-2-0-9"
       inkscape:original-d="M -114.90387,51.724132 C -100.64936,57.425753 -20.081553,9.3995534 0.09614944,16.724143 20.273859,24.048743 95.157617,51.724132 115.19233,51.724132 c 40.06936,0 87.56056,-23.240389 114.99997,-34.999989 27.43941,-11.7595896 87.82079,23.596239 114.90383,34.999989 27.08307,11.403771 85.42245,-23.953109 115.00001,-34.999989 29.57758,-11.0468896 82.57156,21.814439 115.00003,34.999989 32.42839,13.185561 86.84784,-21.814959 114.99998,-34.999989 28.15212,-13.1850396 88.98607,23.596239 115.00001,34.999989 26.01399,11.403771 80.07704,-24.309479 114.99994,-34.999989 34.92301,-10.6905196 85.4223,21.458079 115,34.999989 14.7888,6.770961 94.758,-26.383559 115,-34.999989 20.242,-8.6164296 95.7566,42.30523 114.9999,34.999989"
       sodipodi:nodetypes="csssssssssssc" />
    <path
       style="fill:none;stroke:#000000;stroke-width:0.26458332px;stroke-linecap:butt;stroke-linejoin:miter;stroke-opacity:1"
       d="m -114.90387,16.724132 c 14.39882,-15.230913 32.81151,-26.6330605 52.863056,-32.735702 20.051545,-6.102642 41.694423,-6.891314 62.13696043,-2.264288 C 19.806437,-13.814571 38.024593,-4.5393425 56.625273,3.3608689 75.225953,11.26108 95.020031,17.939451 115.19233,16.724132 c 20.15332,-1.214175 38.90523,-10.1685892 57.24165,-18.618813 18.33642,-8.450224 37.57111,-16.708216 57.75832,-16.381177 20.18548,0.327011 39.12061,9.1937986 57.38516,17.79421534 18.26454,8.60041676 37.33069,17.28419166 57.51867,17.20577466 20.20838,-0.0785 39.21812,-8.9255918 57.48401,-17.57092414 18.2659,-8.64533236 37.30748,-17.44830486 57.516,-17.42906586 20.20967,0.01924 39.23421,8.8589663 57.49693,17.51368232 18.26273,8.65471608 37.29342,17.48592768 57.5031,17.48630768 20.20965,3.8e-4 39.24067,-8.8300989 57.50345,-17.48462603 18.26278,-8.65452707 37.28689,-17.49456697 57.49653,-17.51536397 20.20841,-0.0208 39.25094,8.7795226 57.51716,17.42391093 18.26622,8.64438837 37.27461,17.49203707 57.48285,17.57607907 20.2035,0.08402 39.28615,-8.6032402 57.5664,-17.20678735 18.28025,-8.60354725 37.23236,-17.47321365 57.4335,-17.79320265 20.18725,-0.319769 39.41959,7.941436 57.75595,16.3915913 18.33636,8.450155 37.09039,17.4012967 57.24409,18.6083987 20.1572,1.207314 39.9341,-5.470276 58.5189,-13.3680897 18.5848,-7.897814 36.7871,-17.1690303 56.4811,-21.6319003 20.4423,-4.632439 42.0869,-3.846462 62.1393,2.256454 20.0524,6.1029155 38.465,17.5082769 52.8606,32.743536"
       id="path14-5-7-9-3"
       inkscape:connector-curvature="0"
       inkscape:path-effect="#path-effect16-7-2-0-02"
       inkscape:original-d="m -114.90387,16.724132 c 14.25451,5.70162 94.822318,-42.32458 115.00001643,-34.99999 C 20.27386,-10.951257 95.15762,16.724132 115.19233,16.724132 c 40.06936,0 87.56056,-23.2403894 114.99997,-34.99999 27.43941,-11.75959 87.82079,23.5962404 114.90383,34.99999 27.08307,11.40377 85.42245,-23.9531094 115.00001,-34.99999 29.57758,-11.04689 82.57156,21.8144406 115.00003,34.99999 32.42839,13.18556 86.84784,-21.8149594 114.99998,-34.99999 28.15212,-13.18504 88.98607,23.5962404 115.00001,34.99999 26.01399,11.40377 80.07704,-24.3094794 114.9999,-34.99999 34.923,-10.69052 85.42234,21.4580806 115.00004,34.99999 14.7888,6.77096 94.758,-26.3835594 115,-34.99999 20.242,-8.61643 95.7566,42.30523 114.9999,34.99999"
       sodipodi:nodetypes="csssssssssssc" />
    <path
       style="fill:none;stroke:#000000;stroke-width:0.26458332px;stroke-linecap:butt;stroke-linejoin:miter;stroke-opacity:1"
       d="m -114.90387,-18.275867 c 14.39884,-15.230921 32.811544,-26.633071 52.863108,-32.735711 20.051563,-6.10264 41.694458,-6.891306 62.13701015,-2.264269 19.71027885,4.461292 37.92842385,13.736516 56.52909485,21.636723 18.600671,7.900207 38.394738,14.578572 58.567027,13.363257 20.15332,-1.214173 38.90524,-10.168584 57.24166,-18.618807 18.33642,-8.450222 37.57111,-16.708213 57.75832,-16.381173 20.18548,0.327012 39.12061,9.193796 57.38515,17.794209 18.26454,8.600414 37.33068,17.284186 57.51866,17.205771 20.20838,-0.07849 39.21812,-8.925588 57.48402,-17.570919 18.2659,-8.645331 37.30748,-17.448302 57.51601,-17.429061 20.20967,0.01924 39.2342,8.858966 57.49692,17.513679 18.26273,8.654713 37.29341,17.485921 57.50309,17.486301 20.20965,3.8e-4 39.24067,-8.830096 57.50345,-17.48462 18.26278,-8.654525 37.28688,-17.494562 57.49652,-17.51536 20.2084,-0.0208 39.25094,8.779518 57.51716,17.423904 18.26621,8.644385 37.2746,17.492032 57.48284,17.576076 20.2035,0.08402 39.28615,-8.603233 57.5664,-17.206777 18.28025,-8.603544 37.23236,-17.473208 57.4335,-17.793203 20.18726,-0.319775 39.41962,7.94143 57.75599,16.391585 18.33638,8.450156 37.09044,17.401297 57.24414,18.608395 20.1572,1.207308 39.9341,-5.47028 58.5189,-13.368091 18.5848,-7.897811 36.7871,-17.169022 56.4811,-21.631889 20.4423,-4.632435 42.0869,-3.846457 62.1393,2.256456 20.0524,6.102914 38.465,17.50827 52.8606,32.743524"
       id="path14-5-7-9-1-2"
       inkscape:connector-curvature="0"
       inkscape:path-effect="#path-effect16-7-2-0-6-2"
       inkscape:original-d="m -114.90387,-18.275867 c 14.2545,5.70162 94.822318,-42.32457 115.00011815,-34.99998 20.17769985,7.3246 95.06141985,34.99998 115.09612185,34.99998 40.06934,0 87.56055,-23.24038 114.99998,-34.99998 27.43941,-11.75959 87.82079,23.59623 114.90381,34.99998 27.08309,11.4037702 85.42247,-23.9531 115.00003,-34.99998 29.57756,-11.04689 82.57156,21.81443 115.00001,34.99998 32.42839,13.1855702 86.84787,-21.81495 114.99997,-34.99998 28.1521,-13.18504 88.9861,23.59623 115,34.99998 26.014,11.4037702 80.077,-24.30947 114.9999,-34.99998 34.923,-10.69052 85.42243,21.45808 115.00013,34.99998 14.7888,6.77096 94.758,-26.38355 115,-34.99998 20.242,-8.61643 95.7566,42.30523 114.9999,34.99998"
       sodipodi:nodetypes="csssssssssssc" />
    <path
       style="fill:none;stroke:#000000;stroke-width:0.26458332px;stroke-linecap:butt;stroke-linejoin:miter;stroke-opacity:1"
       d="m -114.90387,-53.275857 c 14.39882,-15.230916 32.811517,-26.633065 52.863066,-32.735706 20.05155,-6.102642 41.694431,-6.891313 62.13697215,-2.264284 19.71028885,4.461289 37.92844185,13.736517 56.52911985,21.636728 18.600679,7.900211 38.394755,14.578581 58.567052,13.363262 20.15332,-1.214176 38.90523,-10.168589 57.24165,-18.618812 18.33642,-8.450224 37.5711,-16.708216 57.75831,-16.381178 20.18548,0.32701 39.12061,9.193798 57.38516,17.794215 18.26454,8.600416 37.33069,17.284191 57.51867,17.205775 20.20838,-0.0785 39.21812,-8.925591 57.48401,-17.570924 18.2659,-8.645332 37.30748,-17.448305 57.516,-17.429066 20.20967,0.01924 39.23421,8.858965 57.49693,17.513681 18.26273,8.654716 37.29342,17.485928 57.5031,17.486309 20.20965,3.81e-4 39.24068,-8.830099 57.50346,-17.484627 18.26279,-8.654527 37.2869,-17.494568 57.49654,-17.515363 20.20841,-0.02079 39.25094,8.779524 57.51716,17.423912 18.26621,8.644388 37.2746,17.492036 57.48284,17.576078 20.2035,0.08402 39.28615,-8.60324 57.5664,-17.206788 18.28025,-8.603547 37.23236,-17.473213 57.4335,-17.793202 20.18724,-0.319769 39.41959,7.941437 57.75594,16.391591 18.33636,8.450155 37.09039,17.401296 57.24409,18.608399 20.1572,1.207314 39.9341,-5.470275 58.5189,-13.368089 18.5848,-7.897814 36.7871,-17.169031 56.4811,-21.631901 20.4423,-4.632439 42.0869,-3.846462 62.1393,2.256454 20.0524,6.102915 38.465,17.508277 52.8606,32.743536"
       id="path14-5-7-9-7-8"
       inkscape:connector-curvature="0"
       inkscape:path-effect="#path-effect16-7-2-0-8-9"
       inkscape:original-d="m -114.90387,-53.275857 c 14.25451,5.70161 94.822328,-42.32458 115.00003815,-34.99999 20.17769985,7.3246 95.06146985,34.99999 115.09617185,34.99999 40.06935,0 87.56055,-23.24039 114.99996,-34.99999 27.43941,-11.759593 87.82079,23.59624 114.90383,34.99999 27.08307,11.40376 85.42245,-23.95311 115.00001,-34.99999 29.57758,-11.04689 82.57156,21.81444 115.00003,34.99999 32.42839,13.18555 86.8478,-21.81496 115,-34.99999 28.1521,-13.185043 88.986,23.59624 115,34.99999 26.014,11.40376 80.077,-24.30948 114.9999,-34.99999 34.923,-10.69052 85.42233,21.45808 115.00003,34.99999 14.7888,6.77095 94.758,-26.38356 115,-34.99999 20.242,-8.61643 95.7566,42.30522 114.9999,34.99999"
       sodipodi:nodetypes="csssssssssssc" />
    <path
       style="fill:none;stroke:#000000;stroke-width:0.26458332px;stroke-linecap:butt;stroke-linejoin:miter;stroke-opacity:1"
       d="m -114.90387,-88.275867 c 14.39883,-15.230913 32.811522,-26.633053 52.863071,-32.735693 20.051548,-6.10264 41.694428,-6.89131 62.13696715,-2.26428 19.71028785,4.46129 37.92844185,13.73651 56.52912085,21.63672 18.600679,7.900205 38.394755,14.578571 58.567051,13.363253 20.15332,-1.214175 38.90523,-10.168584 57.24165,-18.618803 18.33642,-8.45022 37.5711,-16.70821 57.75831,-16.38117 20.18548,0.32701 39.12061,9.19379 57.38516,17.79421 18.26454,8.600409 37.33069,17.284179 57.51867,17.205763 20.20838,-0.0785 39.21811,-8.925587 57.48401,-17.570913 18.2659,-8.64533 37.30748,-17.4483 57.516,-17.42906 20.20967,0.0192 39.23421,8.85896 57.49693,17.51367 18.26273,8.654715 37.29342,17.485922 57.5031,17.486303 20.20965,3.81e-4 39.24068,-8.830094 57.50346,-17.484623 18.26279,-8.65452 37.2869,-17.49455 57.49654,-17.51535 20.2084,-0.0208 39.25094,8.77952 57.51716,17.4239 18.26621,8.644387 37.2746,17.492031 57.48284,17.576073 20.2035,0.08402 39.28615,-8.603236 57.5664,-17.206783 18.28025,-8.60354 37.23236,-17.4732 57.4335,-17.79319 20.18724,-0.31977 39.41959,7.94143 57.75594,16.39158 18.33636,8.450154 37.09039,17.401291 57.24409,18.608393 20.1572,1.207314 39.9341,-5.470272 58.5189,-13.368083 18.5848,-7.89781 36.7871,-17.16902 56.4811,-21.63189 20.4423,-4.63244 42.0869,-3.84646 62.1393,2.25645 20.0524,6.10291 38.465,17.50827 52.8606,32.743523"
       id="path14-5-7-9-2-9"
       inkscape:connector-curvature="0"
       inkscape:path-effect="#path-effect16-7-2-0-9-5"
       inkscape:original-d="m -114.90387,-88.275867 c 14.25451,5.70163 94.822328,-42.324563 115.00003815,-34.999973 20.17769985,7.3246 95.06145985,34.999973 115.09617185,34.999973 40.06935,0 87.56055,-23.240373 114.99996,-34.999973 27.43941,-11.75959 87.82079,23.596233 114.90383,34.999973 27.08307,11.40378 85.42245,-23.953093 115.00001,-34.999973 29.57758,-11.04689 82.57156,21.81442 115.00003,34.999973 32.42839,13.18557 86.8478,-21.814943 115,-34.999973 28.1521,-13.18504 88.986,23.596233 115,34.999973 26.014,11.40378 80.077,-24.309463 114.9999,-34.999973 34.923,-10.69052 85.42233,21.45807 115.00003,34.999973 14.7888,6.77097 94.758,-26.383543 115,-34.999973 20.242,-8.61643 95.7566,42.305223 114.9999,34.999973"
       sodipodi:nodetypes="csssssssssssc" />
    <path
       style="fill:none;stroke:#000000;stroke-width:0.26458332px;stroke-linecap:butt;stroke-linejoin:miter;stroke-opacity:1"
       d="m -114.90387,-123.27585 c 14.39882,-15.23091 32.811514,-26.63306 52.863062,-32.7357 20.051547,-6.10265 41.694427,-6.89132 62.13696615,-2.26429 19.71028985,4.46129 37.92844485,13.73652 56.52912485,21.63673 18.60068,7.90021 38.394758,14.57858 58.567057,13.36326 20.15332,-1.21418 38.90523,-10.16859 57.24165,-18.61881 18.33642,-8.45023 37.5711,-16.70822 57.75831,-16.38118 20.18548,0.32701 39.12061,9.1938 57.38516,17.79421 18.26454,8.60042 37.33069,17.2842 57.51867,17.20578 20.20838,-0.0785 39.21812,-8.92559 57.48401,-17.57092 18.2659,-8.64534 37.30748,-17.44831 57.516,-17.42907 20.20967,0.0192 39.23421,8.85897 57.49693,17.51368 18.26273,8.65472 37.29342,17.48593 57.5031,17.48631 20.20965,3.8e-4 39.24068,-8.8301 57.50346,-17.48463 18.26279,-8.65452 37.2869,-17.49456 57.49654,-17.51536 20.20841,-0.0208 39.25094,8.77952 57.51716,17.42391 18.26621,8.64439 37.2746,17.49204 57.48284,17.57608 20.2035,0.084 39.28615,-8.60324 57.5664,-17.20679 18.28025,-8.60355 37.23236,-17.47321 57.4335,-17.7932 20.18724,-0.31977 39.41959,7.94144 57.75594,16.39159 18.33636,8.45016 37.09039,17.4013 57.24409,18.6084 20.1572,1.20731 39.9341,-5.47027 58.5189,-13.36809 18.5848,-7.89781 36.7871,-17.16903 56.4811,-21.6319 20.4423,-4.63244 42.0869,-3.84646 62.1393,2.25645 20.0524,6.10292 38.465,17.50828 52.8606,32.74354"
       id="path14-5-7-9-3-7"
       inkscape:connector-curvature="0"
       inkscape:path-effect="#path-effect16-7-2-0-02-7"
       inkscape:original-d="m -114.90387,-123.27585 c 14.25451,5.70162 94.822328,-42.32458 115.00002815,-34.99999 20.17770985,7.3246 95.06147985,34.99999 115.09618185,34.99999 40.06935,0 87.56055,-23.24039 114.99996,-34.99999 27.43941,-11.7596 87.82079,23.59624 114.90383,34.99999 27.08307,11.40377 85.42245,-23.95311 115.00001,-34.99999 29.57758,-11.04689 82.57156,21.81444 115.00003,34.99999 32.42839,13.18556 86.8478,-21.81496 115,-34.99999 28.1521,-13.18504 88.986,23.59624 115,34.99999 26.014,11.40377 80.077,-24.30948 114.9999,-34.99999 34.923,-10.69052 85.42233,21.45808 115.00003,34.99999 14.7888,6.77096 94.758,-26.38356 115,-34.99999 20.242,-8.61644 95.7566,42.30522 114.9999,34.99999"
       sodipodi:nodetypes="csssssssssssc" />
    <path
       style="fill:none;stroke:#000000;stroke-width:0.26458332px;stroke-linecap:butt;stroke-linejoin:miter;stroke-opacity:1"
       d="m -114.90387,-158.27587 c 14.39883,-15.23092 32.81154,-26.63307 52.8631,-32.73571 20.051561,-6.10264 41.694453,-6.89131 62.13700302,-2.26427 19.71027998,4.46129 37.92842598,13.73651 56.52909798,21.63672 18.600671,7.90021 38.39474,14.57858 58.567029,13.36326 20.15332,-1.21417 38.90524,-10.16858 57.24166,-18.61881 18.33642,-8.45022 37.57111,-16.70821 57.75832,-16.38117 20.18548,0.32701 39.12061,9.1938 57.38515,17.79421 18.26454,8.60041 37.33068,17.28418 57.51866,17.20577 20.20838,-0.0785 39.21813,-8.92559 57.48403,-17.57092 18.2659,-8.64533 37.30748,-17.4483 57.51601,-17.42906 20.20967,0.0192 39.2342,8.85897 57.49692,17.51368 18.26272,8.65471 37.2934,17.48592 57.50308,17.4863 20.20965,3.8e-4 39.24067,-8.83009 57.50345,-17.48462 18.26278,-8.65452 37.28689,-17.49456 57.49653,-17.51536 20.20841,-0.0208 39.25095,8.77952 57.51717,17.42391 18.26622,8.64438 37.27461,17.49203 57.48286,17.57607 20.2035,0.084 39.28615,-8.60324 57.5664,-17.20678 18.28024,-8.60354 37.23235,-17.47321 57.43349,-17.7932 20.18726,-0.31977 39.41961,7.94143 57.75598,16.39159 18.33637,8.45015 37.09043,17.40129 57.24413,18.60839 20.1572,1.20731 39.9341,-5.47028 58.5189,-13.36809 18.5848,-7.89781 36.7871,-17.16902 56.4811,-21.63189 20.4423,-4.63244 42.0869,-3.84646 62.1393,2.25646 20.0524,6.10291 38.465,17.50827 52.8606,32.74352"
       id="path14-5-7-9-1-1"
       inkscape:connector-curvature="0"
       inkscape:path-effect="#path-effect16-7-2-0-6-6"
       inkscape:original-d="m -114.90387,-158.27587 c 14.2545,5.70162 94.822302,-42.32457 115.00010302,-34.99998 20.17769898,7.3246 95.06141898,34.99998 115.09612698,34.99998 40.06934,0 87.56055,-23.24038 114.99998,-34.99998 27.43941,-11.75959 87.82079,23.59623 114.90381,34.99998 27.0831,11.40377 85.42248,-23.9531 115.00004,-34.99998 29.57756,-11.04689 82.57156,21.81443 115,34.99998 32.42839,13.18557 86.84786,-21.81495 114.99998,-34.99998 28.15214,-13.18504 88.9861,23.59623 115.00003,34.99998 26.014,11.40377 80.07699,-24.30947 114.99989,-34.99998 34.923,-10.69052 85.42241,21.45808 115.00011,34.99998 14.7888,6.77096 94.758,-26.38355 115,-34.99998 20.242,-8.61643 95.7566,42.30523 114.9999,34.99998"
       sodipodi:nodetypes="csssssssssssc" />
    <path
       style="fill:none;stroke:#000000;stroke-width:0.26458332px;stroke-linecap:butt;stroke-linejoin:miter;stroke-opacity:1"
       d="m -114.90387,-193.27586 c 14.39882,-15.23091 32.811512,-26.63306 52.863059,-32.7357 20.051547,-6.10265 41.694425,-6.89132 62.13696403,-2.26429 19.71028997,4.46129 37.92844397,13.73652 56.52912297,21.63673 18.600679,7.90021 38.394756,14.57858 58.567054,13.36326 20.15332,-1.21418 38.90523,-10.16859 57.24165,-18.61881 18.33642,-8.45023 37.5711,-16.70822 57.75831,-16.38118 20.18548,0.32701 39.12061,9.1938 57.38516,17.79421 18.26454,8.60042 37.33069,17.2842 57.51867,17.20578 20.20838,-0.0785 39.21812,-8.92559 57.48402,-17.57092 18.2659,-8.64534 37.30748,-17.44831 57.516,-17.42907 20.20967,0.0192 39.2342,8.85897 57.49693,17.51368 18.26272,8.65472 37.29341,17.48593 57.50309,17.48631 20.20965,3.8e-4 39.24067,-8.8301 57.50345,-17.48463 18.26278,-8.65452 37.28689,-17.49456 57.49653,-17.51536 20.20841,-0.0208 39.25094,8.77952 57.51716,17.42391 18.26622,8.64439 37.27461,17.49204 57.48285,17.57608 20.20351,0.084 39.28617,-8.60324 57.56642,-17.20679 18.28025,-8.60355 37.23237,-17.47321 57.43352,-17.7932 20.18724,-0.31976 39.41958,7.94144 57.75593,16.39159 18.33636,8.45016 37.09038,17.4013 57.24408,18.6084 20.1572,1.20731 39.9341,-5.47027 58.5189,-13.36809 18.5848,-7.89781 36.7871,-17.16903 56.4811,-21.6319 20.4423,-4.63244 42.0869,-3.84646 62.1393,2.25645 20.0524,6.10292 38.465,17.50828 52.8606,32.74354"
       id="path14-5-7-9-7-0"
       inkscape:connector-curvature="0"
       inkscape:path-effect="#path-effect16-7-2-0-8-3"
       inkscape:original-d="m -114.90387,-193.27586 c 14.25451,5.70161 94.822322,-42.32458 115.00002303,-34.99999 20.17769897,7.3246 95.06146897,34.99999 115.09617697,34.99999 40.06935,0 87.56055,-23.24039 114.99996,-34.99999 27.43941,-11.75959 87.82079,23.59624 114.90383,34.99999 27.08308,11.40376 85.42246,-23.95311 115.00002,-34.99999 29.57758,-11.04689 82.57156,21.81444 115.00002,34.99999 32.42839,13.18555 86.84784,-21.81496 114.99998,-34.99999 28.15212,-13.18504 88.98607,23.59624 115.00001,34.99999 26.01399,11.40376 80.07704,-24.30948 114.99994,-34.99999 34.923,-10.69052 85.42231,21.45808 115.00001,34.99999 14.7888,6.77095 94.758,-26.38356 115,-34.99999 20.242,-8.61643 95.7566,42.30522 114.9999,34.99999"
       sodipodi:nodetypes="csssssssssssc" />
    <path
       style="fill:none;stroke:#000000;stroke-width:0.26458332px;stroke-linecap:butt;stroke-linejoin:miter;stroke-opacity:1"
       d="m -114.90387,-228.27587 c 14.39882,-15.23091 32.811515,-26.63305 52.863062,-32.73569 20.051546,-6.10264 41.694423,-6.89132 62.13696102,-2.26429 19.71028898,4.46129 37.92844398,13.73651 56.52912298,21.63672 18.60068,7.90021 38.394757,14.57858 58.567054,13.36326 20.15332,-1.21418 38.90523,-10.16859 57.24165,-18.61881 18.33642,-8.45022 37.5711,-16.70821 57.75831,-16.38117 20.18548,0.32701 39.12061,9.19379 57.38516,17.79421 18.26454,8.60041 37.33069,17.28419 57.51867,17.20577 20.20838,-0.0785 39.21812,-8.92559 57.48402,-17.57092 18.2659,-8.64533 37.30748,-17.4483 57.516,-17.42906 20.20967,0.0192 39.2342,8.85896 57.49693,17.51368 18.26272,8.65471 37.29341,17.48592 57.50309,17.4863 20.20965,3.8e-4 39.24067,-8.8301 57.50345,-17.48462 18.26278,-8.65452 37.28689,-17.49456 57.49653,-17.51536 20.20841,-0.0208 39.25094,8.77952 57.51716,17.4239 18.26622,8.64439 37.27461,17.49204 57.48285,17.57608 20.20351,0.084 39.28617,-8.60324 57.56642,-17.20678 18.28025,-8.60355 37.23237,-17.47321 57.43352,-17.7932 20.18724,-0.31976 39.41958,7.94144 57.75593,16.39159 18.33636,8.45015 37.09038,17.40129 57.24408,18.60839 20.1572,1.20731 39.9341,-5.47027 58.5189,-13.36808 18.5848,-7.89782 36.7871,-17.16903 56.4811,-21.6319 20.4423,-4.63244 42.0869,-3.84646 62.1393,2.25645 20.0524,6.10292 38.465,17.50827 52.8606,32.74353"
       id="path14-5-7-9-2-6"
       inkscape:connector-curvature="0"
       inkscape:path-effect="#path-effect16-7-2-0-9-50"
       inkscape:original-d="m -114.90387,-228.27587 c 14.25451,5.70163 94.822312,-42.32457 115.00002302,-34.99998 20.17769898,7.3246 95.06145898,34.99998 115.09617698,34.99998 40.06935,0 87.56055,-23.24038 114.99996,-34.99998 27.43941,-11.75959 87.82079,23.59624 114.90383,34.99998 27.08308,11.40378 85.42246,-23.9531 115.00002,-34.99998 29.57758,-11.04689 82.57156,21.81443 115.00002,34.99998 32.42839,13.18557 86.84784,-21.81495 114.99998,-34.99998 28.15212,-13.18504 88.98607,23.59624 115.00001,34.99998 26.01399,11.40378 80.07704,-24.30947 114.99994,-34.99998 34.923,-10.69052 85.42231,21.45808 115.00001,34.99998 14.7888,6.77097 94.758,-26.38355 115,-34.99998 20.242,-8.61643 95.7566,42.30523 114.9999,34.99998"
       sodipodi:nodetypes="csssssssssssc" />
    <path
       style="fill:none;stroke:#000000;stroke-width:0.26458332px;stroke-linecap:butt;stroke-linejoin:miter;stroke-opacity:1"
       d="m -114.90387,-263.27586 c 14.39882,-15.23091 32.811509,-26.63306 52.863054,-32.7357 20.051545,-6.10264 41.694422,-6.89132 62.13695903,-2.26429 19.71029097,4.46129 37.92844697,13.73652 56.52912797,21.63673 18.600681,7.90021 38.39476,14.57858 58.567059,13.36326 20.15332,-1.21418 38.90523,-10.16859 57.24165,-18.61881 18.33642,-8.45023 37.5711,-16.70822 57.75831,-16.38118 20.18548,0.32701 39.12061,9.1938 57.38516,17.79421 18.26454,8.60042 37.33069,17.2842 57.51867,17.20578 20.20838,-0.0785 39.21812,-8.92559 57.48402,-17.57092 18.2659,-8.64534 37.30748,-17.44831 57.516,-17.42907 20.20967,0.0192 39.2342,8.85897 57.49693,17.51368 18.26272,8.65472 37.29341,17.48593 57.50309,17.48631 20.20965,3.8e-4 39.24067,-8.8301 57.50345,-17.48463 18.26278,-8.65452 37.28689,-17.49456 57.49653,-17.51536 20.20841,-0.0208 39.25094,8.77952 57.51716,17.42391 18.26622,8.64439 37.27461,17.49204 57.48285,17.57608 20.20351,0.084 39.28617,-8.60324 57.56642,-17.20679 18.28025,-8.60355 37.23237,-17.47321 57.43352,-17.7932 20.18724,-0.31976 39.41958,7.94144 57.75593,16.39159 18.33636,8.45016 37.09038,17.4013 57.24408,18.6084 20.1572,1.20731 39.9341,-5.47027 58.5189,-13.36809 18.5848,-7.89781 36.7871,-17.16903 56.4811,-21.6319 20.4423,-4.63244 42.0869,-3.84646 62.1393,2.25645 20.0524,6.10292 38.465,17.50828 52.8606,32.74354"
       id="path14-5-7-9-3-3"
       inkscape:connector-curvature="0"
       inkscape:path-effect="#path-effect16-7-2-0-02-4"
       inkscape:original-d="m -114.90387,-263.27586 c 14.25451,5.70162 94.822322,-42.32458 115.00001303,-34.99999 20.17770897,7.3246 95.06147897,34.99999 115.09618697,34.99999 40.06935,0 87.56055,-23.24039 114.99996,-34.99999 27.43941,-11.7596 87.82079,23.59624 114.90383,34.99999 27.08308,11.40377 85.42246,-23.95311 115.00002,-34.99999 29.57758,-11.04689 82.57156,21.81444 115.00002,34.99999 32.42839,13.18556 86.84784,-21.81496 114.99998,-34.99999 28.15212,-13.18504 88.98607,23.59624 115.00001,34.99999 26.01399,11.40377 80.07704,-24.30948 114.99994,-34.99999 34.923,-10.69052 85.42231,21.45808 115.00001,34.99999 14.7888,6.77096 94.758,-26.38356 115,-34.99999 20.242,-8.61644 95.7566,42.30522 114.9999,34.99999"
       sodipodi:nodetypes="csssssssssssc" />
    <path
       style="fill:none;stroke:#000000;stroke-width:0.26458332px;stroke-linecap:butt;stroke-linejoin:miter;stroke-opacity:1"
       d="m -114.90387,-298.27587 c 14.39883,-15.23092 32.81154,-26.63307 52.863102,-32.73571 20.051561,-6.10264 41.694453,-6.89131 62.13700353,-2.26427 19.71027947,4.46129 37.92842547,13.73652 56.52909647,21.63672 18.600671,7.90021 38.394739,14.57858 58.567028,13.36326 20.15332,-1.21417 38.90524,-10.16858 57.24166,-18.61881 18.33642,-8.45022 37.57111,-16.70821 57.75832,-16.38117 20.18548,0.32701 39.12061,9.1938 57.38515,17.79421 18.26454,8.60041 37.33068,17.28418 57.51866,17.20577 20.20838,-0.0785 39.21813,-8.92559 57.48403,-17.57092 18.2659,-8.64533 37.30748,-17.4483 57.51601,-17.42906 20.20967,0.0192 39.2342,8.85897 57.49692,17.51368 18.26273,8.65471 37.29341,17.48592 57.50309,17.4863 20.20965,3.8e-4 39.24067,-8.83009 57.50345,-17.48462 18.26278,-8.65452 37.28688,-17.49456 57.49652,-17.51536 20.20841,-0.0208 39.25095,8.77952 57.51717,17.4239 18.26622,8.64439 37.27461,17.49204 57.48286,17.57608 20.2035,0.084 39.28615,-8.60324 57.5664,-17.20678 18.28024,-8.60354 37.23235,-17.47321 57.43349,-17.7932 20.18726,-0.31977 39.41961,7.94143 57.75598,16.39159 18.33637,8.45015 37.09043,17.40129 57.24413,18.60839 20.1572,1.20731 39.9341,-5.47028 58.5189,-13.36809 18.5848,-7.89781 36.7871,-17.16902 56.4811,-21.63189 20.4423,-4.63244 42.0869,-3.84646 62.1393,2.25646 20.0524,6.10291 38.465,17.50827 52.8606,32.74352"
       id="path14-5-7-9-1-5"
       inkscape:connector-curvature="0"
       inkscape:path-effect="#path-effect16-7-2-0-6-1"
       inkscape:original-d="m -114.90387,-298.27587 c 14.2545,5.70162 94.822305,-42.32457 115.00010553,-34.99998 20.17769947,7.3246 95.06141747,34.99998 115.09612447,34.99998 40.06934,0 87.56055,-23.24038 114.99998,-34.99998 27.43941,-11.75959 87.82079,23.59623 114.90381,34.99998 27.08309,11.40377 85.42247,-23.9531 115.00004,-34.99998 29.57756,-11.04689 82.57156,21.81443 115.00001,34.99998 32.42839,13.18557 86.84785,-21.81495 114.99997,-34.99998 28.15214,-13.18504 88.9861,23.59623 115.00003,34.99998 26.014,11.40377 80.07699,-24.30947 114.99989,-34.99998 34.923,-10.69052 85.42241,21.45808 115.00011,34.99998 14.7888,6.77096 94.758,-26.38355 115,-34.99998 20.242,-8.61643 95.7566,42.30523 114.9999,34.99998"
       sodipodi:nodetypes="csssssssssssc" />
    <path
       style="fill:none;stroke:#000000;stroke-width:0.26458332px;stroke-linecap:butt;stroke-linejoin:miter;stroke-opacity:1"
       d="m -114.90387,-333.27586 c 14.39882,-15.23091 32.811513,-26.63306 52.86306,-32.7357 20.051547,-6.10265 41.694427,-6.89132 62.13696553,-2.26429 19.71028947,4.46129 37.92844247,13.73652 56.52912147,21.63673 18.600679,7.90021 38.394756,14.57858 58.567053,13.36326 20.15332,-1.21418 38.90523,-10.16859 57.24165,-18.61881 18.33642,-8.45023 37.5711,-16.70822 57.75831,-16.38118 20.18548,0.32701 39.12061,9.1938 57.38516,17.79421 18.26454,8.60042 37.33069,17.2842 57.51867,17.20578 20.20838,-0.0785 39.21812,-8.92559 57.48402,-17.57092 18.2659,-8.64534 37.30748,-17.44831 57.516,-17.42907 20.20967,0.0192 39.23421,8.85897 57.49693,17.51368 18.26273,8.65472 37.29342,17.48593 57.5031,17.48631 20.20965,3.8e-4 39.24067,-8.8301 57.50345,-17.48463 18.26278,-8.65452 37.28688,-17.49456 57.49652,-17.51536 20.20841,-0.0208 39.25095,8.77952 57.51716,17.42391 18.26622,8.64439 37.27461,17.49204 57.48285,17.57608 20.20351,0.084 39.28617,-8.60324 57.56642,-17.20679 18.28025,-8.60355 37.23237,-17.47321 57.43352,-17.7932 20.18724,-0.31976 39.41958,7.94144 57.75593,16.39159 18.33636,8.45016 37.09038,17.4013 57.24408,18.6084 20.1572,1.20731 39.9341,-5.47027 58.5189,-13.36809 18.5848,-7.89781 36.7871,-17.16903 56.4811,-21.6319 20.4423,-4.63244 42.0869,-3.84646 62.1393,2.25645 20.0524,6.10292 38.465,17.50828 52.8606,32.74354"
       id="path14-5-7-9-7-5"
       inkscape:connector-curvature="0"
       inkscape:path-effect="#path-effect16-7-2-0-8-6"
       inkscape:original-d="m -114.90387,-333.27586 c 14.25451,5.70161 94.822325,-42.32458 115.00002553,-34.99999 20.17769947,7.3246 95.06146747,34.99999 115.09617447,34.99999 40.06935,0 87.56055,-23.24039 114.99996,-34.99999 27.43941,-11.75959 87.82079,23.59624 114.90383,34.99999 27.08307,11.40376 85.42245,-23.95311 115.00002,-34.99999 29.57758,-11.04689 82.57156,21.81444 115.00003,34.99999 32.42839,13.18555 86.84783,-21.81496 114.99997,-34.99999 28.15212,-13.18504 88.98607,23.59624 115.00001,34.99999 26.01399,11.40376 80.07704,-24.30948 114.99994,-34.99999 34.923,-10.69052 85.42231,21.45808 115.00001,34.99999 14.7888,6.77095 94.758,-26.38356 115,-34.99999 20.242,-8.61643 95.7566,42.30522 114.9999,34.99999"
       sodipodi:nodetypes="csssssssssssc" />
    <path
       style="fill:none;stroke:#000000;stroke-width:0.26458332px;stroke-linecap:butt;stroke-linejoin:miter;stroke-opacity:1"
       d="m -114.90387,-368.27587 c 14.39882,-15.23091 32.811516,-26.63306 52.863063,-32.7357 20.051546,-6.10263 41.694424,-6.89131 62.13696253,-2.26428 19.71028847,4.46129 37.92844347,13.73651 56.52912247,21.63672 18.600679,7.90021 38.394755,14.57858 58.567052,13.36326 20.15332,-1.21418 38.90523,-10.16859 57.24165,-18.61881 18.33642,-8.45022 37.5711,-16.70821 57.75831,-16.38117 20.18548,0.32701 39.12061,9.19379 57.38516,17.79421 18.26454,8.60041 37.33069,17.28419 57.51867,17.20577 20.20838,-0.0785 39.21812,-8.92559 57.48402,-17.57092 18.2659,-8.64533 37.30748,-17.4483 57.516,-17.42906 20.20967,0.0192 39.23421,8.85896 57.49693,17.51368 18.26273,8.65471 37.29342,17.48592 57.5031,17.4863 20.20965,3.8e-4 39.24067,-8.8301 57.50345,-17.48462 18.26278,-8.65452 37.28688,-17.49456 57.49652,-17.51536 20.20841,-0.0208 39.25094,8.77952 57.51716,17.4239 18.26622,8.64439 37.27461,17.49204 57.48285,17.57608 20.20351,0.084 39.28617,-8.60324 57.56642,-17.20678 18.28025,-8.60355 37.23237,-17.47321 57.43352,-17.7932 20.18724,-0.31976 39.41958,7.94144 57.75593,16.39159 18.33636,8.45015 37.09038,17.40129 57.24408,18.60839 20.1572,1.20731 39.9341,-5.47027 58.5189,-13.36808 18.5848,-7.89782 36.7871,-17.16903 56.4811,-21.6319 20.4423,-4.63244 42.0869,-3.84646 62.1393,2.25645 20.0524,6.10292 38.465,17.50827 52.8606,32.74353"
       id="path14-5-7-9-2-4"
       inkscape:connector-curvature="0"
       inkscape:path-effect="#path-effect16-7-2-0-9-0"
       inkscape:original-d="m -114.90387,-368.27587 c 14.25451,5.70163 94.822315,-42.32457 115.00002553,-34.99998 20.17769947,7.3246 95.06145747,34.99998 115.09617447,34.99998 40.06935,0 87.56055,-23.24038 114.99996,-34.99998 27.43941,-11.75959 87.82079,23.59624 114.90383,34.99998 27.08307,11.40378 85.42245,-23.9531 115.00002,-34.99998 29.57758,-11.04689 82.57156,21.81443 115.00003,34.99998 32.42839,13.18557 86.84783,-21.81495 114.99997,-34.99998 28.15212,-13.18504 88.98607,23.59624 115.00001,34.99998 26.01399,11.40378 80.07704,-24.30947 114.99994,-34.99998 34.923,-10.69052 85.42231,21.45808 115.00001,34.99998 14.7888,6.77097 94.758,-26.38355 115,-34.99998 20.242,-8.61643 95.7566,42.30523 114.9999,34.99998"
       sodipodi:nodetypes="csssssssssssc" />
    <path
       style="fill:none;stroke:#000000;stroke-width:0.26458332px;stroke-linecap:butt;stroke-linejoin:miter;stroke-opacity:1"
       d="m -114.90387,-403.27586 c 14.39882,-15.23091 32.81151,-26.63306 52.863055,-32.7357 20.051546,-6.10264 41.694423,-6.89132 62.13696053,-2.26429 19.71029047,4.46129 37.92844647,13.73652 56.52912647,21.63673 18.600681,7.90021 38.394759,14.57858 58.567058,13.36326 20.15332,-1.21418 38.90523,-10.16859 57.24165,-18.61881 18.33642,-8.45023 37.5711,-16.70822 57.75831,-16.38118 20.18548,0.32701 39.12061,9.1938 57.38516,17.79421 18.26454,8.60042 37.33069,17.2842 57.51867,17.20578 20.20838,-0.0785 39.21812,-8.92559 57.48402,-17.57092 18.2659,-8.64534 37.30748,-17.44831 57.516,-17.42907 20.20967,0.0192 39.23421,8.85897 57.49693,17.51368 18.26273,8.65472 37.29342,17.48593 57.5031,17.48631 20.20965,3.8e-4 39.24067,-8.8301 57.50345,-17.48463 18.26278,-8.65452 37.28688,-17.49456 57.49652,-17.51536 20.20841,-0.0208 39.25095,8.77952 57.51716,17.42391 18.26622,8.64439 37.27461,17.49204 57.48285,17.57608 20.20351,0.084 39.28617,-8.60324 57.56642,-17.20679 18.28025,-8.60355 37.23237,-17.47321 57.43352,-17.7932 20.18724,-0.31976 39.41958,7.94144 57.75593,16.39159 18.33636,8.45016 37.09038,17.4013 57.24408,18.6084 20.1572,1.20731 39.9341,-5.47027 58.5189,-13.36809 18.5848,-7.89781 36.7871,-17.16903 56.4811,-21.6319 20.4423,-4.63244 42.0869,-3.84646 62.1393,2.25645 20.0524,6.10292 38.465,17.50828 52.8606,32.74354"
       id="path14-5-7-9-3-76"
       inkscape:connector-curvature="0"
       inkscape:path-effect="#path-effect16-7-2-0-02-2"
       inkscape:original-d="m -114.90387,-403.27586 c 14.25451,5.70162 94.822325,-42.32458 115.00001553,-34.99999 20.17770947,7.3246 95.06147747,34.99999 115.09618447,34.99999 40.06935,0 87.56055,-23.24039 114.99996,-34.99999 27.43941,-11.7596 87.82079,23.59624 114.90383,34.99999 27.08307,11.40377 85.42245,-23.95311 115.00002,-34.99999 29.57758,-11.04689 82.57156,21.81444 115.00003,34.99999 32.42839,13.18556 86.84783,-21.81496 114.99997,-34.99999 28.15212,-13.18504 88.98607,23.59624 115.00001,34.99999 26.01399,11.40377 80.07704,-24.30948 114.99994,-34.99999 34.923,-10.69052 85.42231,21.45808 115.00001,34.99999 14.7888,6.77096 94.758,-26.38356 115,-34.99999 20.242,-8.61644 95.7566,42.30522 114.9999,34.99999"
       sodipodi:nodetypes="csssssssssssc" />
    <path
       style="fill:none;stroke:#000000;stroke-width:0.26458332px;stroke-linecap:butt;stroke-linejoin:miter;stroke-opacity:1"
       d="m -114.90387,-403.27586 v 34.99999 35.00001 34.99999 l 2.13816,35.00001 v 34.99999 35.00001 34.99999 l -2.13816,35.00001 v 34.99998 35.000009 35.000009 34.999982 35.000009 35.000009 34.999982 35.00001 34.99998 35.00001 35.00001 L -115,296.99997"
       id="path288"
       inkscape:connector-curvature="0" />
    <path
       style="fill:none;stroke:#000000;stroke-width:0.26458332px;stroke-linecap:butt;stroke-linejoin:miter;stroke-opacity:1"
       d="m 1265.096,-403.27586 v 34.99999 35.00001 l 10e-5,34.99999 -10e-5,35.00001 v 34.99999 35.00001 l 10e-5,34.99999 -10e-5,35.00001 v 34.99998 35.000009 l 10e-5,35.000009 -10e-5,34.999982 v 35.000009 35.000009 l 10e-5,34.999982 -10e-5,35.00001 v 34.99998 35.00001 35.00001 L 1265,296.99997"
       id="path290"
       inkscape:connector-curvature="0" />
    <path
       style="fill:#000000;stroke-width:4.04061031"
       d="M 383.68029,127.64664 C 330.60692,122.18858 278.18016,105.06382 158.34778,54.043617 112.27198,34.426244 62.754826,14.52533 48.309645,9.8193647 -108.71559,-41.336473 -270.56251,-10.684227 -398.00495,94.347043 l -34.51802,28.447917 V 60.530526 -1.7339075 l 23.41101,-20.3622715 c 68.04908,-59.187278 146.42798,-98.015091 227.10682,-112.505551 40.39532,-7.25527 120.14289,-7.13703 162.450838,0.24086 42.262924,7.37004 97.203221,26.28847 177.785592,61.219635 144.15241,62.487777 176.86604,71.695726 255.75358,71.9873248 79.44829,0.2936715 103.29609,-6.750995 257.26726,-75.9970928 100.52299,-45.208617 164.80275,-59.607627 228.55368,-51.197257 47.02616,6.20394 88.32604,20.46436 185.12789,63.922714 113.6889,51.039658 161.5015,65.38000998 217.9854,65.38000998 56.9663,0 104.327,-14.31687198 220.7391,-66.72818398 150.0033,-67.53482 199.624,-76.6856 291.72,-53.79734 38.2268,9.50035 69.9725,22.048888 152.0257,60.09314 112.8458,52.3213156 172.297,66.4935053 242.0182,57.6930766 47.0907,-5.9439477 91.7607,-21.3348256 182.4414,-62.8595826 85.2242,-39.026074 110.3487,-48.803534 146.2504,-56.914854 42.8479,-9.6807 69.7174,-11.37603 104.601,-6.5998 48.0828,6.58346 86.7323,19.93889 180.9681,62.534058 114.8956,51.93349 163.4532,66.57948598 220.7391,66.57948598 56.4839,0 104.2965,-14.34035198 217.9854,-65.38000998 154.0329,-69.151734 204.9516,-78.556464 298.6263,-55.156574 41.2151,10.29551 67.469,20.371397 146.0484,56.051666 117.7854,53.482296 172.9991,67.7142342 245.7167,63.33592199 64.3278,-3.87316329 107.8811,-17.35541899 237.7588,-73.60001299 76.8767,-33.292035 131.8492,-52.401135 173.4465,-60.291995 40.5168,-7.68591 123.9699,-7.94594 165.3421,-0.51519 82.0418,14.73525 164.8024,56.221104 227.7898,114.18571 l 22.7281,20.91560017 V 61.498575 122.49757 l -35.3554,-28.704265 c -78.3708,-63.627533 -153.786,-95.2014666 -252.5381,-105.729466 -32.6077,-3.476331 -54.2654,-3.479669 -86.8731,-0.01333 -73.5852,7.8222371 -98.6697,15.9947591 -267.6905,87.213019 -175.5075,73.951402 -241.0793,72.538642 -424.264,-9.140851 C 3594.6346,13.281331 3559.5616,2.0820811 3500.7659,-1.6919013 3434.725,-5.9309418 3385.7311,7.0413523 3268.676,59.759391 3139.9273,117.74384 3108.0148,127.36729 3044.4221,127.38485 2984.119,127.40141 2935.0136,113.22301 2838.351,67.8848 2732.5819,18.275303 2683.1298,1.926154 2627.9941,-1.6603765 c -67.2359,-4.3736413 -113.2527,8.1799688 -240.1712,65.5198715 -93.0482,42.037805 -133.0348,55.813565 -181.1193,62.397245 -65.5027,8.96857 -119.2548,-4.60011 -247.1853,-62.397245 -196.6246,-88.832091 -248.3645,-89.335575 -432.3453,-4.207172 -118.2495,54.714317 -160.6901,67.516617 -224.2539,67.646557 -63.4702,0.12975 -95.2593,-9.44429 -224.2539,-67.539489 C 961.64323,7.0562743 912.64222,-5.9209575 846.57526,-1.706391 788.60357,1.9917573 737.30605,18.578939 626.97702,69.30126 519.6547,118.64128 452.56336,134.73056 383.68029,127.64664 Z"
       id="path292"
       inkscape:connector-curvature="0"
       transform="matrix(0.26458333,0,0,0.26458333,0,-403)" />
    <path
       style="fill:#000000;stroke-width:4.04061031"
       d="m 369.53815,390.50518 c -42.78226,-8.42472 -57.25387,-12.1037 -88.1434,-22.40786 -19.58848,-6.53435 -70.60587,-27.055 -113.37197,-45.60144 -132.643128,-57.52358 -183.409274,-70.90822 -268.73484,-70.85274 -54.9033,0.0357 -86.54457,4.46686 -133.82101,18.74083 -65.0057,19.6269 -127.06755,54.60125 -175.60144,98.95849 l -22.38846,20.46179 v -62.62946 -62.62946 l 22.68975,-20.73715 c 103.42866,-94.52797 244.61226,-137.41754 380.044416,-115.45209 52.471647,8.51027 91.968611,21.85103 191.847564,64.79972 136.32421,58.62042 184.50582,72.00043 257.98702,71.64285 55.72684,-0.27118 103.57203,-12.75922 183.61862,-47.92618 171.31197,-75.26267 188.70627,-80.52546 264.88911,-80.14444 50.45207,0.25232 57.58241,1.2736 94.95434,13.60021 22.22336,7.33008 70.40765,26.92524 107.07615,43.5448 91.0161,41.25191 120.9073,52.81654 161.3502,62.42478 74.4959,17.69844 143.7909,7.71819 239.6804,-34.52012 28.3348,-12.48117 74.1732,-32.66694 101.8633,-44.85728 64.953,-28.59511 100.0876,-38.36696 148.4089,-41.27635 65.7222,-3.95709 111.4457,8.4761 229.5502,62.41957 127.438,58.20646 181.635,72.02072 254.8054,64.94726 42.8315,-4.14057 97.5711,-22.88543 189.6618,-64.94726 108.5868,-49.59636 155.8873,-63.68812 213.341,-63.55857 58.2997,0.13145 99.5078,12.48317 214.9636,64.43319 124.3094,55.93374 155.6646,65.24544 220.3148,65.42791 62.5647,0.17658 104.1873,-12.45772 232.2336,-70.49313 92.0292,-41.71111 136.9934,-55.64378 188.3864,-58.37368 69.9556,-3.71591 108.6707,6.81921 243.0319,66.13363 129.2147,57.04254 185.8815,70.7559 256.9049,62.17114 65.1795,-7.87841 101.2358,-19.49251 222.8344,-71.77693 97.9052,-42.0968 136.9181,-55.17311 191.2986,-64.11873 45.4492,-7.47642 115.3764,-5.71042 160.7941,4.06085 81.7993,17.59848 160.276,58.43247 220.4246,114.69438 l 19.4321,18.17658 v 62.32775 62.32775 l -26.2547,-23.48472 c -34.3266,-30.70453 -91.8774,-66.61599 -130.8329,-81.63881 -59.5332,-22.95846 -91.0871,-29.34301 -156.0597,-31.57698 -98.2269,-3.37736 -144.1217,7.7042 -286.6486,69.2124 -127.295,54.93498 -164.8682,66.27574 -231.2558,69.80016 -70.9422,3.76622 -115.69,-7.79184 -233.1998,-60.23437 -87.5285,-39.0622 -113.2959,-48.92274 -154.5789,-59.15369 -45.842,-11.36072 -77.6889,-13.7352 -115.2472,-8.59275 -47.7492,6.53777 -87.8594,20.31219 -179.1309,61.51614 -89.4549,40.38379 -122.1803,52.51956 -166.0729,61.58584 -77.0747,15.92022 -134.4212,3.62504 -268.2927,-57.5224 -129.546,-59.17164 -191.3868,-74.87481 -258.6155,-65.66991 -48.4072,6.62786 -86.8974,19.91383 -181.2852,62.57566 -119.6341,54.07271 -160.7246,66.58129 -218.7188,66.58129 -57.2468,0 -98.9953,-12.54742 -214.1523,-64.36303 -127.876,-57.53854 -156.3589,-65.96651 -222.2336,-65.75785 -64.8,0.20526 -103.05,12.28432 -250.5178,79.11166 -70.8329,32.09902 -119.7895,46.8312 -165.908,49.92558 -64.0089,4.29477 -112.3985,-9.0072 -237.0653,-65.16764 -94.35251,-42.50432 -134.19361,-56.23701 -182.23905,-62.81534 -70.65585,-9.67414 -136.8402,6.95493 -269.51605,67.71691 -100.82155,46.17357 -155.76036,61.68453 -216.03333,60.99301 -21.11219,-0.24224 -42.02234,-1.15652 -46.46702,-2.03177 z"
       id="path294"
       inkscape:connector-curvature="0"
       transform="matrix(0.26458333,0,0,0.26458333,0,-403)" />
    <path
       style="fill:#000000;stroke-width:4.04061031"
       d="M 389.7412,657.02191 C 322.32787,648.78283 285.3735,637.22429 175.58887,590.0396 28.878229,526.98437 -10.902911,516.42467 -101.19293,516.56924 c -120.10384,0.19231 -207.7447,33.32863 -310.11683,117.25272 l -13.13199,10.76553 v -62.68886 -62.68886 l 27.27412,-22.03699 c 36.78983,-29.72552 58.0002,-43.66776 93.94419,-61.75246 65.62099,-33.01625 123.97872,-46.42696 202.03051,-46.42696 87.855066,0 125.908321,10.11616 271.91884,72.28748 127.81917,54.42543 180.11497,69.13388 245.80507,69.13388 61.06901,0 117.74301,-16.65466 229.78897,-67.52757 121.51755,-55.17334 189.15042,-71.57964 255.24062,-61.91597 48.57621,7.10278 86.8951,20.37824 180.61943,62.57503 116.4121,52.41132 163.7728,66.72819 220.7391,66.72819 57.0177,0 104.4316,-14.3533 220.2133,-66.66364 192.8083,-87.11113 240.7405,-87.16178 429.4682,-0.45384 195.4037,89.77509 246.7665,89.667 444.093,-0.93462 122.7798,-56.37384 180.8351,-70.83359 246.0869,-61.29251 49.1868,7.19206 88.4848,20.77878 181.4283,62.72621 115.837,52.27975 163.2347,66.6184 220.2133,66.6184 56.898,0 103.848,-14.20169 220.7009,-66.75881 93.7291,-42.15666 132.1175,-55.44691 180.6576,-62.54441 66.0902,-9.66367 133.7231,6.74263 255.2406,61.91597 112.0462,50.87291 168.7202,67.52757 229.7891,67.52757 65.7153,0 118.4085,-14.81262 244.9826,-68.86711 145.2224,-62.01847 184.8281,-72.55425 272.7412,-72.55425 117.7006,0 214.8926,37.3183 307.9192,118.23039 l 23.4109,20.36228 v 62.26443 62.26443 l -34.5182,-28.44791 c -129.9282,-107.0802 -289.2103,-136.11302 -452.3754,-82.45596 -17.7786,5.84654 -67.0373,25.65673 -109.4641,44.02263 -155.7546,67.42422 -221.135,82.35846 -300.5544,68.65292 -50.255,-8.67266 -83.3598,-20.22304 -175.1713,-61.11816 -127.0182,-56.57722 -176.5573,-69.67749 -246.3435,-65.14389 -55.7285,3.62035 -104.6878,19.76622 -210.9441,69.56546 -124.1526,58.18671 -198.5096,71.62226 -280.1804,50.62579 -42.1017,-10.82377 -51.023,-14.30253 -138.0227,-53.82009 -118.975,-54.04156 -164.4427,-67.68657 -225.0937,-67.55141 -59.4475,0.13246 -99.7655,12.35285 -219.8993,66.65145 -94.7282,42.81567 -134.3366,56.44966 -180.9863,62.29905 -67.331,8.44259 -119.7118,-4.81313 -246.7925,-62.45439 -117.9486,-53.49909 -161.2625,-66.56627 -220.6478,-66.56627 -58.4594,0 -108.9945,14.80932 -209.6772,61.44598 -119.6415,55.4184 -162.6514,68.60454 -224.2539,68.75255 -60.7207,0.1459 -112.1035,-14.52667 -208.0914,-59.42139 -106.70485,-49.90715 -155.25408,-65.90888 -210.94407,-69.52673 -69.78623,-4.5336 -119.32532,8.56667 -246.34368,65.14389 -90.80661,40.44759 -124.60268,52.32387 -172.8289,60.73383 -34.21859,5.96722 -50.77212,6.72398 -76.99015,3.51967 z"
       id="path296"
       inkscape:connector-curvature="0"
       transform="matrix(0.26458333,0,0,0.26458333,0,-403)" />
    <path
       style="fill:#000000;stroke-width:4.04061031"
       d="m 343.27419,914.31265 c -46.90215,-10.20472 -89.723,-25.54013 -178.1897,-63.81496 -140.014899,-60.57704 -186.459127,-71.74406 -284.46017,-68.39548 -65.46802,2.23697 -95.59377,8.27187 -154.29212,30.90835 -38.34768,14.78843 -94.54494,48.98853 -127.54044,77.61757 l -23.23351,20.1589 v -62.39232 -62.39233 l 17.1726,-15.7867 c 48.70357,-44.77301 127.27081,-87.02258 195.61721,-105.19325 34.7805,-9.24679 48.08089,-10.61399 106.4184,-10.93919 93.41834,-0.52074 125.177536,7.50074 263.58132,66.57316 141.6463,60.45637 187.65835,73.49664 259.6777,73.59521 62.56893,0.0856 122.08384,-17.21524 226.27417,-65.77752 108.43514,-50.54074 151.71464,-62.73049 222.23356,-62.59252 62.17699,0.12166 89.35591,6.76846 166.67519,40.76163 27.2236,11.96878 72.6805,31.97328 101.0152,44.45445 128.4371,56.57517 208.9539,56.57517 337.391,0 l 103.0355,-45.38607 c 65.8715,-29.01568 116.0539,-41.97939 162.1425,-41.88657 62.0614,0.12499 101.0547,11.67088 214.6444,63.55607 109.8049,50.15632 148.8641,62.49829 205.1344,64.81847 74.0268,3.05235 107.1254,-5.73174 229.1109,-60.8041 123.7424,-55.86559 162.2753,-67.44439 224.8663,-67.57044 46.0886,-0.0928 96.271,12.87089 162.1425,41.88657 l 103.0355,45.38607 c 128.4371,56.57517 208.9539,56.57517 337.391,0 28.3347,-12.48117 73.7916,-32.48567 101.0152,-44.45445 77.3193,-33.99317 104.4982,-40.63997 166.6752,-40.76163 70.5189,-0.13797 113.7984,12.05178 222.2336,62.59252 104.1903,48.56228 163.7053,65.86316 226.2741,65.77752 72.0195,-0.0986 118.0315,-13.13884 259.6775,-73.59521 138.3812,-59.06273 170.155,-67.08926 263.5815,-66.58484 59.1412,0.31931 71.2332,1.59487 107.0762,11.29539 72.1738,19.53295 143.6603,58.53325 197.5236,107.76117 l 22.6897,20.73715 v 62.47523 62.47523 L 4753.6095,895.331 c -34.8458,-31.16919 -92.0395,-66.67839 -132.5745,-82.31045 -58.0571,-22.38915 -88.9786,-28.64081 -153.3355,-31.00106 -97.5059,-3.57595 -141.467,6.68221 -274.9841,64.16664 -137.6761,59.27516 -196.2702,76.23961 -262.836,76.09761 -60.7566,-0.12961 -106.0491,-13.28887 -218.5942,-63.51041 -202.7474,-90.473 -256.6219,-90.64759 -451.4799,-1.46304 -179.3294,82.07726 -242.5026,84.60735 -395.1904,15.82746 -171.4443,-77.22899 -218.1106,-90.0529 -291.2574,-80.03771 -48.4719,6.63673 -88.2708,20.33135 -181.494,62.45125 -117.1054,52.91036 -162.4808,66.80261 -218.1929,66.80261 -56.0722,0 -102.9977,-14.31602 -218.193,-66.56627 -127.7717,-57.95469 -183.2065,-71.94945 -249.2051,-62.91298 -56.4673,7.73144 -86.3796,18.05223 -192.7931,66.52029 -133.2642,60.69772 -190.0127,72.69854 -267.7961,56.63191 -41.9257,-8.65998 -76.133,-21.39658 -158.9368,-59.17791 -194.32696,-88.66651 -248.1944,-88.43651 -450.69055,1.92439 -42.135,18.80212 -88.45126,38.07686 -102.92497,42.83275 -66.94212,21.99638 -128.28905,26.10215 -189.85679,12.70657 z"
       id="path298"
       inkscape:connector-curvature="0"
       transform="matrix(0.26458333,0,0,0.26458333,0,-403)" />
    <path
       style="fill:#000000;stroke-width:4.04061031"
       d="m 389.7412,1186.6146 c -68.48151,-9.4337 -110.80888,-22.7876 -216.78467,-68.3937 -146.068948,-62.8599 -204.31802,-77.4281 -292.33221,-73.1126 -108.40289,5.3152 -200.11605,41.1256 -282.18603,110.1827 l -30.96126,26.0521 v -62.4247 -62.4248 l 23.23351,-19.907 c 39.55833,-33.8946 66.42813,-52.45402 100.97479,-69.74518 69.13317,-34.60224 128.78535,-48.68996 207.12174,-48.91477 84.547988,-0.24264 134.175045,12.86098 267.95056,70.75016 125.83813,54.45439 185.26593,71.14159 252.80728,70.98769 59.17825,-0.1349 103.42245,-13.2684 224.73474,-66.71044 96.92951,-42.70066 136.16036,-56.02576 185.10641,-62.87297 68.38636,-9.56677 122.77612,3.95289 253.82564,63.09342 96.0416,43.34209 136.949,57.33179 186.0407,63.62339 69.0492,8.8492 122.473,-4.5678 253.3342,-63.62339 192.0734,-86.67967 241.0631,-87.15287 423.0421,-4.08619 128.66,58.72858 159.8132,68.16268 226.0016,68.43988 68.2427,0.2858 101.1196,-9.5748 233.5737,-70.05441 142.5142,-65.07319 203.3163,-73.6621 301.977,-42.65735 18.7964,5.90689 71.6866,27.66802 117.5336,48.35807 96.0417,43.34209 136.9491,57.33179 186.0408,63.62339 69.0492,8.8492 122.473,-4.5678 253.3341,-63.62339 130.4746,-58.88107 185.6797,-72.62657 253.5517,-63.13175 49.2275,6.88658 88.3217,20.15372 185.3804,62.9113 121.3124,53.44204 165.5563,66.57554 224.7346,66.71044 66.7263,0.1521 128.9707,-17.2128 250.3445,-69.84097 137.2293,-59.50324 185.2871,-72.3692 269.4271,-72.13069 115.2261,0.32663 207.1738,34.36886 298.9813,110.69306 l 33.3351,27.7131 v 62.9509 62.9508 l -21.2132,-18.7131 c -93.9523,-82.8793 -214.1156,-125.1425 -336.3808,-118.3096 -73.3323,4.0982 -118.095,17.3868 -250.5179,74.3715 -121.5254,52.2953 -173.4403,66.783 -240.4163,67.0924 -65.0526,0.3005 -101.0686,-10.1322 -223.3536,-64.6985 -115.3376,-51.4661 -165.1462,-66.0494 -225.5886,-66.0494 -61.7237,0 -107.7804,13.7928 -226.1224,67.7178 -109.4674,49.8811 -150.7496,62.0071 -211.5241,62.1317 -61.0122,0.1251 -102.3369,-12.0608 -214.7812,-63.3352 -115.7619,-52.7872 -161.5634,-66.5143 -221.9299,-66.5143 -58.7033,0 -107.9974,14.7422 -216.1727,64.6498 -112.4589,51.8839 -156.7325,65.0917 -218.1929,65.0917 -62.9696,0 -95.7825,-9.7389 -216.1726,-64.1604 -117.4243,-53.0808 -158.228,-65.3792 -217.3532,-65.5109 -61.0578,-0.1361 -106.4512,13.4032 -222.7697,66.4441 -112.4443,51.2744 -153.769,63.4603 -214.7812,63.3352 -60.7745,-0.1246 -102.0567,-12.2506 -211.5241,-62.1317 -118.34196,-53.925 -164.39874,-67.7178 -226.12241,-67.7178 -58.92632,0 -113.38882,15.5677 -214.20224,61.2281 -85.98483,38.9442 -117.48175,51.0969 -155.6738,60.0646 -33.75389,7.9256 -84.20862,12.5375 -105.33015,9.6279 z"
       id="path300"
       inkscape:connector-curvature="0"
       transform="matrix(0.26458333,0,0,0.26458333,0,-403)" />
    <path
       style="fill:#000000;stroke-width:4.04061031"
       d="m 349.8268,1445.3924 c -42.19156,-8.383 -85.12418,-23.6475 -178.27854,-63.3862 -150.311107,-64.1212 -189.826861,-73.7887 -288.90363,-70.6797 -45.95938,1.4422 -71.06528,4.2313 -94.32281,10.4787 -73.973,19.8705 -144.74458,57.2472 -194.93715,102.9525 l -25.90764,23.5915 v -62.5522 -62.5522 l 25.25382,-23.3959 c 52.46975,-48.6096 121.5162,-85.7819 196.2947,-105.6784 34.0237,-9.0528 47.68322,-10.4437 105.74091,-10.7673 94.471727,-0.5266 122.965908,6.8238 273.20287,70.4763 133.88,56.7224 180.71224,69.7447 250.05615,69.531 67.08059,-0.2067 112.40779,-14.1589 256.57874,-78.9779 79.8905,-35.9186 120.23894,-47.415 176.1841,-50.1996 70.79044,-3.5236 107.81411,6.8796 244.03938,68.5721 107.1961,48.5461 145.3136,59.4171 208.6592,59.5095 30.551,0.044 50.594,-2.447 78.7919,-9.7947 44.2179,-11.522 45.9901,-12.2226 149.1829,-58.9809 98.1032,-44.4521 137.5516,-56.6175 192.6747,-59.4184 68.1788,-3.4644 106.103,7.0665 234.3577,65.0764 125.0347,56.5537 158.4536,65.5715 230.3007,62.1445 57.7267,-2.7535 94.8457,-14.1915 198.7229,-61.2355 134.6724,-60.9906 164.2122,-69.3169 234.0806,-65.9795 56.8483,2.7155 94.913,14.3694 194.2812,59.4815 131.4555,59.6793 161.5751,68.7303 228.5426,68.6783 62.6954,-0.049 101.0915,-11.024 208.0914,-59.4812 136.2253,-61.6925 173.2489,-72.0957 244.0394,-68.5721 57.6551,2.8698 95.6292,14.0763 190.3262,56.1671 141.7179,62.9906 175.3475,73.0086 244.4569,72.8209 68.7401,-0.1867 123.4924,-15.2323 238.7185,-65.5982 145.3949,-63.553 185.6757,-74.3002 278.4796,-74.3002 55.1705,0 72.7868,1.5293 102.1325,8.8664 79.5119,19.8796 151.175,58.2958 207.9844,111.4931 l 21.2132,19.8644 v 62.2946 62.2946 l -26.2547,-23.4848 c -34.8458,-31.1692 -92.0395,-66.6784 -132.5745,-82.3104 -60.3279,-23.2649 -88.6897,-28.8912 -156.3384,-31.014 -99.1437,-3.1111 -138.4544,6.5235 -288.9037,70.8058 -137.5561,58.7736 -191.0958,72.6566 -263.8033,68.4051 -59.2443,-3.4643 -99.2233,-16.739 -238.2388,-79.1054 -58.959,-26.4507 -112.0661,-43.2915 -155.8222,-49.4126 -67.5966,-9.4563 -131.0131,6.4233 -258.6675,64.7708 -135.5248,61.9448 -194.3637,74.6083 -272.0749,58.5566 -42.1245,-8.7011 -76.4189,-21.5109 -158.9368,-59.3668 -193.2429,-88.6523 -242.3469,-88.7773 -436.3859,-1.1101 -114.6023,51.7775 -163.3251,66.6636 -218.1929,66.6636 -54.8678,0 -103.5906,-14.8861 -218.193,-66.6636 -194.0389,-87.6672 -243.1429,-87.5422 -436.3859,1.1101 -190.8909,87.5733 -240.9827,87.6675 -431.0116,0.8102 -192.36504,-87.9251 -251.54543,-88.6761 -436.47305,-5.5389 -125.12036,56.2498 -174.4095,70.7274 -238.46198,70.0429 -19.53914,-0.2089 -48.03235,-2.8647 -63.31827,-5.9018 z"
       id="path302"
       inkscape:connector-curvature="0"
       transform="matrix(0.26458333,0,0,0.26458333,0,-403)" />
    <path
       style="fill:#000000;stroke-width:4.04061031"
       d="m 379.57289,1714.3592 c -58.08531,-7.1385 -101.45463,-21.4132 -218.15166,-71.8028 -132.759658,-57.3255 -174.03833,-67.7303 -266.65477,-67.214 -57.89367,0.3227 -71.76239,1.7272 -105.35395,10.6691 -74.48112,19.8267 -135.15776,51.2881 -192.64105,99.8864 l -29.29443,24.7665 v -62.5934 -62.5935 l 32.26414,-27.5059 c 86.58189,-73.8129 187.09807,-111.2196 299.0659,-111.2961 83.529351,-0.057 129.567659,11.8577 255.81854,66.2062 132.05151,56.8456 178.86529,71.1533 245.21712,74.946 68.57796,3.9199 123.55273,-10.8523 244.80861,-65.7822 154.04988,-69.7859 220.04642,-79.6448 320.9434,-47.9443 18.85321,5.9235 70.55066,27.0938 114.88326,47.0451 95.6953,43.0666 137.4256,57.5971 185.0916,64.4488 68.3298,9.8221 127.2756,-4.2496 247.2999,-59.0363 129.0343,-58.8993 161.622,-68.6305 228.4558,-68.2201 55.6672,0.3419 91.4061,9.726 169.7056,44.5602 157.7775,70.1926 185.3299,79.7995 242.6546,84.6078 61.3574,5.1466 116.2081,-9.8402 238.178,-65.077 152.4241,-69.0286 207.3094,-78.735 299.4647,-52.9599 41.4573,11.5954 57.3799,17.9411 142.4405,56.7681 120.7718,55.1279 179.5529,69.1966 248.0029,59.3572 47.7439,-6.8629 91.1016,-21.9564 185.8637,-64.7022 189.9606,-85.6884 243.6704,-85.5461 435.0547,1.1526 121.2559,54.9299 176.2304,69.7021 244.8085,65.7822 66.3516,-3.7927 113.1657,-18.1004 245.2169,-74.946 125.2048,-53.8981 171.9983,-66.1219 253.7984,-66.2993 111.232,-0.2411 208.2975,34.9597 295.485,107.1575 l 37.8654,31.3555 v 62.7845 62.7845 l -29.2945,-24.7665 c -57.4441,-48.5652 -118.0399,-79.9956 -192.6409,-99.921 -34.0526,-9.0952 -46.9074,-10.3586 -107.3744,-10.5533 -94.6775,-0.3048 -126.7806,7.8294 -263.7876,66.8376 -122.6204,52.8122 -160.0958,64.9011 -223.4756,72.0895 -69.5607,7.8894 -129.0179,-6.7643 -254.1887,-62.647 -120.5152,-53.8042 -164.2352,-66.6897 -226.2742,-66.6897 -62.5175,0 -107.1653,13.2606 -223.9502,66.5143 -113.8767,51.9275 -150.5346,62.6313 -214.8198,62.7255 -63.6533,0.093 -100.7575,-10.8665 -217.2483,-64.1698 -111.8255,-51.1687 -157.7155,-64.9925 -215.9137,-65.0417 -61.539,-0.052 -110.0444,14.0526 -214.9921,62.5163 -117.3149,54.1747 -159.0426,66.6983 -222.2336,66.6983 -62.7644,0 -104.4634,-12.4318 -220.2133,-65.6522 -108.5625,-49.9158 -155.3321,-63.6145 -217.0124,-63.5624 -58.1982,0.049 -104.0882,13.873 -215.9137,65.0417 -116.4908,53.3033 -153.5951,64.263 -217.2483,64.1698 -64.2852,-0.094 -100.9431,-10.798 -214.8198,-62.7255 -116.78493,-53.2537 -161.43275,-66.5143 -223.9502,-66.5143 -61.8234,0 -105.08851,12.7126 -226.27417,66.4863 -41.11321,18.2431 -85.66094,37.038 -98.99495,41.7662 -54.11096,19.1879 -112.45592,26.8953 -159.67089,21.0927 z"
       id="path304"
       inkscape:connector-curvature="0"
       transform="matrix(0.26458333,0,0,0.26458333,0,-403)" />
    <path
       style="fill:#000000;stroke-width:4.04061031"
       d="m 369.53815,1978.0966 c -47.34669,-6.5869 -104.9559,-26.3033 -210.15803,-71.9257 -123.827692,-53.6995 -178.989819,-67.8712 -262.59336,-67.4628 -116.93873,0.5712 -226.39183,43.043 -308.09652,119.5529 l -21.21321,19.8644 v -62.7803 -62.7804 l 25.25382,-23.3959 c 77.52678,-71.8232 178.85189,-113.242 287.89347,-117.6826 90.380815,-3.6807 144.185217,9.8311 291.78935,73.2763 128.01716,55.026 175.50698,67.8708 249.65242,67.5242 29.64345,-0.1385 50.73826,-2.8878 79.19604,-10.3216 36.9938,-9.6636 56.52918,-17.4266 188.00684,-74.711 73.86757,-32.1839 123.31239,-44.8685 174.75187,-44.8311 64.17446,0.047 104.39696,12.0669 226.76626,67.7674 110.5187,50.3063 148.9593,61.315 214.5161,61.4337 62.1553,0.1125 95.1522,-9.86 223.9531,-67.6845 114.6311,-51.463 149.3278,-61.5664 211.2577,-61.5166 56.8206,0.046 107.6427,14.8594 200.8215,58.5353 115.324,54.0562 170.0036,70.6619 232.8272,70.7076 50.6825,0.037 98.2994,-12.0288 167.1932,-42.3655 28.8904,-12.7215 75.2564,-33.1453 103.0356,-45.386 65.1111,-28.6909 115.1283,-41.5197 161.8783,-41.5197 62.5454,0 106.2521,12.7504 213.2714,62.2166 115.5309,53.4004 161.096,67.124 222.4968,67.0128 65.4257,-0.1185 102.9592,-10.8764 214.5161,-61.4847 122.9052,-55.7566 162.7908,-67.6881 226.2742,-67.6881 59.615,0 117.8678,16.6089 212.132,60.4825 112.5767,52.3968 167.9177,69.0613 230.3148,69.3529 74.1012,0.3464 121.6393,-12.5091 249.1097,-67.3651 147.2519,-63.3691 201.9727,-77.1152 292.3321,-73.4354 109.0415,4.4406 210.3667,45.8594 287.8934,117.6826 l 25.2539,23.3959 v 62.7804 62.7803 l -21.2132,-19.8644 c -81.7816,-76.5819 -191.8607,-119.2887 -308.0966,-119.5304 -85.4775,-0.1777 -132.7041,11.9673 -262.6396,67.5419 -135.1015,57.7841 -174.0356,69.667 -240.4163,73.3762 -70.7729,3.9547 -112.2619,-7.228 -242.4366,-65.3447 -196.7213,-87.8264 -250.0671,-87.7005 -444.4672,1.0498 -89.0909,40.673 -131.2967,55.3489 -178.8231,62.1805 -67.1889,9.6581 -127.3623,-4.3111 -237.3597,-55.1028 -130.2506,-60.1438 -169.9004,-72.2503 -236.3757,-72.1742 -67.1107,0.077 -96.5251,9.4224 -256.5788,81.5203 -84.5954,38.107 -116.8817,46.5628 -177.7868,46.5628 -60.9054,0 -93.1922,-8.456 -177.7868,-46.5631 -159.8276,-71.997 -187.7114,-80.906 -254.5585,-81.3326 -68.4117,-0.4367 -106.3833,11.0294 -238.396,71.9868 -109.9974,50.7917 -170.1708,64.7609 -237.3597,55.1028 -47.5264,-6.8316 -89.7322,-21.5075 -178.8231,-62.1805 -194.37056,-88.7368 -247.54459,-88.8694 -444.46716,-1.1089 -92.21157,41.095 -114.06517,49.2688 -157.5838,58.9408 -31.9535,7.1016 -83.58361,9.3034 -115.15739,4.9109 z"
       id="path306"
       inkscape:connector-curvature="0"
       transform="matrix(0.26458333,0,0,0.26458333,0,-403)" />
    <path
       style="fill:#000000;stroke-width:4.04061031"
       d="m 395.80212,2245.0907 c -5.55584,-0.8155 -23.73858,-3.4992 -40.4061,-5.9637 -42.26062,-6.2487 -87.70734,-21.8663 -184.89687,-63.5388 -148.002337,-63.4598 -177.7277325,-71.1536 -273.71239,-70.8447 -60.46675,0.1947 -73.32161,1.4581 -107.37425,10.5533 -74.60117,19.9254 -135.1968,51.3558 -192.64105,99.9211 l -29.29443,24.7664 v -62.636 -62.6361 l 29.08324,-25.0312 c 120.43823,-103.658 272.06649,-138.8694 423.54733,-98.357 21.066974,5.6342 66.486826,22.1386 100.93303,36.6764 170.01736,71.7549 211.24282,84.9187 278.8021,89.0253 68.08905,4.1387 122.74162,-10.6771 248.05233,-67.245 145.29048,-65.5871 210.32685,-76.6056 301.56512,-51.0914 41.83729,11.6996 57.62202,17.9854 142.80552,56.8685 83.3812,38.0605 127.3591,52.9221 175.5928,59.3389 70.4119,9.3673 125.6646,-4.3967 254.5485,-63.4103 126.2636,-57.8139 182.6911,-72.2579 247.947,-63.4682 48.5266,6.5363 91.4874,21.3261 185.1236,63.7314 129.043,58.44 184.9402,72.5751 251.528,63.6056 48.4587,-6.5275 91.5993,-21.3713 184.8579,-63.6056 149.8688,-67.8714 206.1736,-78.3445 294.9646,-54.8655 36.1615,9.5622 61.5532,19.7164 148.353,59.3266 179.7872,82.044 238.9271,81.952 419.8944,-0.6529 85.1835,-38.8831 100.9682,-45.1689 142.8055,-56.8685 90.7131,-25.3673 155.7901,-14.6041 297.8531,49.2627 131.6859,59.2015 182.9213,73.2583 251.7644,69.0737 67.5594,-4.1066 108.7849,-17.2704 278.8021,-89.0253 34.4462,-14.5378 79.8659,-31.0422 100.9332,-36.6764 150.0739,-40.1361 300.8412,-5.7122 420.3119,95.9675 l 32.3185,27.5059 v 62.5935 62.5934 l -29.2945,-24.7664 c -57.5136,-48.6239 -118.2525,-80.1091 -192.6409,-99.8596 -33.4809,-8.8893 -47.6517,-10.3283 -105.3541,-10.6983 -94.2452,-0.6045 -130.6216,8.555 -266.6802,67.1493 -121.6515,52.3897 -156.2197,63.579 -220.9382,71.5142 -68.2334,8.3662 -130.5986,-6.4499 -246.5261,-58.567 -124.4676,-55.9564 -173.5514,-70.446 -238.462,-70.3943 -60.49,0.048 -103.9792,13.051 -219.3735,65.5902 -38.8908,17.7071 -89.8025,38.8155 -113.137,46.9075 -41.4777,14.3836 -43.7819,14.7127 -103.0356,14.7127 -59.423,0 -61.4564,-0.293 -103.8965,-14.97 -23.808,-8.2334 -75.6289,-29.8463 -115.1574,-48.0285 -111.2281,-51.1624 -155.8313,-64.2402 -219.0984,-64.2402 -59.0375,0 -114.8753,17.0849 -224.5078,68.6936 -99.1396,46.6692 -146.8418,60.5493 -208.0914,60.5493 -64.7339,0 -96.1967,-9.5434 -226.5223,-68.7097 -98.0004,-44.4911 -137.4902,-56.6834 -192.6746,-59.4874 -68.6354,-3.4875 -112.9075,8.4891 -231.3413,62.5829 -41.1132,18.7782 -93.8432,40.7724 -117.1777,48.8761 -41.4966,14.411 -43.7548,14.7339 -103.0356,14.7339 -59.2537,0 -61.5579,-0.3291 -103.0356,-14.7127 -23.3345,-8.092 -74.2462,-29.2004 -113.137,-46.9075 -115.39429,-52.5392 -158.88354,-65.542 -219.37349,-65.5902 -64.97718,-0.052 -106.15148,11.9304 -230.47507,67.0708 -91.51894,40.5907 -140.08562,56.6849 -187.42229,62.1084 -19.51995,2.2365 -37.30906,3.8336 -39.53139,3.5492 -2.22234,-0.2844 -8.5863,-1.1843 -14.14214,-1.9999 z"
       id="path308"
       inkscape:connector-curvature="0"
       transform="matrix(0.26458333,0,0,0.26458333,0,-403)" />
    <path
       style="fill:#000000;stroke-width:4.04061031"
       d="m 373.57876,2507.7849 c -42.66589,-8.4018 -56.8298,-11.8455 -84.85281,-20.6302 -17.77868,-5.5733 -71.68224,-27.0501 -119.78571,-47.7261 C 47.553525,2387.2535 9.4507331,2375.5846 -61.653816,2368.8097 -184.7815,2357.078 -318.99241,2402.0343 -408.65119,2485.0425 l -23.87178,22.101 v -62.4496 -62.4496 l 23.7957,-22.6973 c 30.03473,-28.6482 90.11475,-67.6705 129.31053,-83.9877 16.57996,-6.9023 47.55312,-17.2055 68.82925,-22.8961 33.69448,-9.0121 47.2829,-10.3919 105.35395,-10.6983 94.8909,-0.5007 131.083655,8.7082 268.94584,68.4303 139.81606,60.5686 186.82339,72.7911 268.15869,69.7247 45.91697,-1.7312 55.46865,-3.4871 99.29157,-18.2534 26.66803,-8.9858 74.58615,-28.3492 106.48471,-43.0297 120.97736,-55.6767 170.29636,-69.2343 240.39206,-66.0829 59.08633,2.6565 94.48316,13.417 198.00367,60.1921 131.9077,59.6017 172.1614,70.6347 244.5345,67.0233 54.7916,-2.734 96.8319,-15.969 198.4056,-62.4612 41.173,-18.8457 93.9518,-40.761 117.2863,-48.7007 37.1969,-12.6564 48.4031,-14.6359 90.9138,-16.0588 60.0976,-2.0116 100.3798,7.2669 175.7665,40.4857 27.7792,12.2408 74.1452,32.6645 103.0356,45.3861 128.6248,56.6385 206.1586,56.8523 333.3503,0.9191 27.7792,-12.2161 73.6443,-32.5214 101.9224,-45.123 66.6983,-29.7228 117.4711,-42.7018 167.0456,-42.7018 62.1658,0 102.4174,12.0941 221.7711,66.6344 99.9737,45.6843 142.1544,58.899 196.689,61.6202 72.3731,3.6114 112.6268,-7.4216 244.5345,-67.0233 103.5205,-46.7751 138.9173,-57.5356 198.0037,-60.1921 70.8872,-3.187 108.5333,7.1068 239.8006,65.5702 114.9048,51.1759 155.7897,62.6901 222.6028,62.6901 70.7051,0 122.3901,-14.4921 251.9236,-70.6376 138.6907,-60.1146 191.7047,-73.1321 283.088,-69.5121 109.248,4.3276 210.2737,45.5932 287.8934,117.5943 l 25.2539,23.4258 v 62.6295 62.6294 l -23.872,-22.101 c -89.6704,-83.0193 -226.3517,-128.8134 -347.3943,-116.3921 -70.7207,7.2573 -111.2093,19.4592 -218.4794,65.8419 -128.2691,55.4624 -175.3855,70.2478 -237.3268,74.4745 -66.9946,4.5715 -123.6799,-9.6056 -229.779,-57.468 -134.0147,-60.4554 -171.6851,-71.7318 -240.1844,-71.898 -68.3077,-0.1656 -105.4538,11.0234 -237.2345,71.4592 -121.2999,55.6293 -178.7877,67.5462 -255.5755,52.9798 -42.3571,-8.035 -79.9615,-22.0158 -167.6083,-62.3146 -141.7908,-65.1936 -205.3097,-76.5069 -293.699,-52.3107 -42.3086,11.5818 -61.0491,18.9713 -141.6775,55.8643 -178.2639,81.5679 -239.6764,84.0516 -391.1497,15.8187 -101.1153,-45.5484 -143.2936,-62.6426 -175.7666,-71.2353 -92.7904,-24.5533 -151.8659,-14.0135 -298.1484,53.1937 -189.8737,87.2344 -246.3992,88.2715 -421.0802,7.7257 -129.60565,-59.7614 -168.0769,-71.3464 -236.3757,-71.1808 -68.4022,0.1659 -106.2634,11.482 -239.43981,71.5645 -68.94663,31.1052 -109.32226,45.3396 -151.4908,53.4077 -27.65575,5.2915 -80.77887,6.9976 -100.00353,3.2119 z"
       id="path310"
       inkscape:connector-curvature="0"
       transform="matrix(0.26458333,0,0,0.26458333,0,-403)" />
    <path
       style="fill:none;stroke:#000000;stroke-width:0.26458332px;stroke-linecap:butt;stroke-linejoin:miter;stroke-opacity:1"
       d="m -114.90387,331.72413 c 14.39882,-15.23091 32.811506,-26.63306 52.863049,-32.7357 20.051543,-6.10264 41.694419,-6.89132 62.13695443,-2.26429 19.71028757,4.46129 37.92844057,13.73651 56.52911857,21.63672 18.600677,7.90021 38.394752,14.57859 58.567048,13.36327 20.15333,-1.21417 38.90525,-10.16859 57.24167,-18.61881 18.33642,-8.45023 37.57111,-16.70822 57.75833,-16.38118 20.18548,0.32701 39.12061,9.1938 57.38516,17.79422 18.26454,8.60041 37.33069,17.28419 57.51867,17.20577 20.20838,-0.0785 39.21812,-8.92559 57.48401,-17.57093 18.2659,-8.64533 37.30748,-17.4483 57.516,-17.42906 20.20967,0.0192 39.2342,8.85897 57.49692,17.51368 18.26273,8.65472 37.29341,17.48593 57.50309,17.48631 20.20965,3.8e-4 39.24068,-8.8301 57.50346,-17.48462 18.26279,-8.65453 37.2869,-17.49457 57.49654,-17.51537 20.2084,-0.0208 39.25094,8.77952 57.51715,17.42391 18.26622,8.64438 37.2746,17.49203 57.48284,17.57608 20.20351,0.084 39.28617,-8.60323 57.56643,-17.20678 18.28026,-8.60355 37.23238,-17.47322 57.43353,-17.79321 20.18726,-0.31977 39.41961,7.94144 57.75598,16.39159 18.33637,8.45016 37.09042,17.4013 57.24412,18.6084 20.1572,1.20731 39.9341,-5.47028 58.5189,-13.36809 18.5848,-7.89782 36.7871,-17.16903 56.4811,-21.6319 20.4423,-4.63244 42.0869,-3.84646 62.1393,2.25646 20.0524,6.10291 38.465,17.50827 52.8606,32.74353"
       id="path14-5-6"
       inkscape:connector-curvature="0"
       inkscape:path-effect="#path-effect16-7-5"
       inkscape:original-d="m -114.90387,331.72413 c 14.25451,5.70162 94.822303,-42.32458 115.00000343,-34.99999 20.17770957,7.3246 95.06146957,34.99999 115.09616657,34.99999 40.06939,0 87.56059,-23.24039 115,-34.99999 27.43941,-11.75959 87.82079,23.59624 114.90383,34.99999 27.08307,11.40377 85.42245,-23.95311 115.00001,-34.99999 29.57756,-11.04689 82.57156,21.81444 115.00001,34.99999 32.42841,13.18557 86.84786,-21.81496 115,-34.99999 28.15212,-13.18504 88.98605,23.59624 114.99999,34.99999 26.01401,11.40377 80.07706,-24.30948 114.99996,-34.99999 34.923,-10.69052 85.4224,21.45808 115.0001,34.99999 14.7888,6.77096 94.758,-26.38356 115,-34.99999 20.242,-8.61643 95.7566,42.30524 114.9999,34.99999"
       sodipodi:nodetypes="csssssssssssc" />
    <path
       style="fill:none;stroke:#000000;stroke-width:0.26458332px;stroke-linecap:butt;stroke-linejoin:miter;stroke-opacity:1"
       d="m -115,296.99997 0.0961,34.72415"
       id="path330"
       inkscape:connector-curvature="0" />
    <path
       style="fill:none;stroke:#000000;stroke-width:0.26458332px;stroke-linecap:butt;stroke-linejoin:miter;stroke-opacity:1"
       d="m 1265,296.99997 0.096,34.72415"
       id="path332"
       inkscape:connector-curvature="0" />
    <path
       style="fill:#000000;stroke-width:4.04061031"
       d="m 399.84273,2774.1355 c -61.0558,-4.1373 -114.78812,-20.5083 -232.33508,-70.7874 -133.586658,-57.1399 -188.535239,-71.8161 -268.88332,-71.8161 -111.3907,0 -215.48383,39.4668 -305.50023,115.8301 l -25.64707,21.7571 v -62.4797 -62.4796 l 26.52694,-22.5044 c 68.86073,-58.4188 144.27919,-95.3408 223.99089,-109.6576 36.1725,-6.4968 116.909957,-7.2982 153.543191,-1.524 42.263247,6.6616 101.21082,26.5266 181.538429,61.1776 132.44325,57.1321 178.5818,71.3371 243.58241,74.9936 71.77869,4.0378 124.45217,-9.5914 240.54977,-62.2418 120.89303,-54.8253 162.01849,-66.991 227.30424,-67.2411 65.59591,-0.2514 95.81875,9.112 242.4366,75.11 138.4543,62.3232 200.9057,69.3868 307.0345,34.7273 14.4737,-4.7269 63.5905,-25.4351 109.1484,-46.0184 93.4782,-42.2339 133.232,-55.9325 181.4939,-62.5405 68.3018,-9.3518 130.0564,6.6058 256.6194,66.3116 123.8354,58.419 193.0551,72.8558 271.5655,56.6391 40.3425,-8.333 79.6809,-23.1385 164.0135,-61.7284 80.3048,-36.7469 105.8066,-46.6059 141.2892,-54.6225 87.0356,-19.6641 141.9147,-9.3186 276.5351,52.1306 116.2158,53.0482 153.7063,65.4121 209.7687,69.1789 65.767,4.4189 115.6926,-9.0157 237.2177,-63.8339 95.3469,-43.0096 138.7185,-58.0405 185.1458,-64.1642 38.8926,-5.13 79.534,-1.266 128.0277,12.1723 26.9111,7.4575 45.5949,15.0691 176.72,71.9948 83.6491,36.3147 112.8704,43.21 181.8274,42.9053 79.933,-0.3531 107.4249,-8.2046 264.66,-75.5848 128.0053,-54.8542 176.2676,-66.0274 270.0089,-62.5092 109.6949,4.1168 208.0074,44.1613 284.8133,116.0096 l 27.0257,25.2812 v 60.3989 60.3989 l -26.527,-22.5044 c -89.9073,-76.2739 -193.1574,-115.3824 -304.6204,-115.3824 -80.348,0 -135.2966,14.6762 -268.8832,71.8161 -129.8729,55.5513 -180.3668,69.8607 -247.6204,70.1724 -65.7637,0.3048 -106.4745,-11.5171 -231.192,-67.1359 -112.3183,-50.0892 -155.8663,-62.5917 -218.1929,-62.6427 -63.2535,-0.052 -115.1537,15.5345 -232.8758,69.9358 -107.1217,49.5027 -153.9521,61.7055 -224.197,58.4201 -52.4724,-2.4542 -95.2166,-16.2189 -201.6553,-64.9379 -101.5737,-46.4922 -143.614,-59.7272 -198.4057,-62.4612 -71.8625,-3.5859 -112.3871,7.464 -238.8249,65.1207 -113.7349,51.864 -151.4608,63.0145 -213.199,63.0145 -61.6318,0 -99.5206,-11.1767 -212.4357,-62.6658 -127.1092,-57.9615 -166.5361,-68.8239 -237.6748,-65.4809 -56.5747,2.6586 -97.004,15.2049 -198.6025,61.6317 -118.1866,54.007 -160.2638,66.6345 -222.0385,66.6345 -59.5505,0 -106.6249,-13.6004 -206.0711,-59.5366 -117.20717,-54.1404 -169.1804,-69.7266 -232.3351,-69.6749 -62.62146,0.051 -105.79982,12.5097 -220.05078,63.4925 -90.49965,40.3841 -147.88512,60.2459 -184.01024,63.688 -14.44518,1.3764 -29.90051,2.9396 -34.34518,3.4738 -4.44467,0.5343 -16.26346,0.417 -26.26397,-0.2607 z"
       id="path334"
       inkscape:connector-curvature="0"
       transform="matrix(0.26458333,0,0,0.26458333,0,-403)" />
  </g>
</svg>
